<svg xmlns="http://www.w3.org/2000/svg" width="66.849" height="64" viewBox="3.129 2.906 66.849 64"><path d="M21.295 42.71V27.633h3V42.71h-3M27.124 27.633h3.168v8.166c0 1.296.039 2.136.118 2.52.136.617.457 1.114.963 1.491.514.37 1.213.555 2.098.555.899 0 1.577-.175 2.033-.525.457-.357.731-.792.824-1.306.093-.514.139-1.368.139-2.561v-8.341h3.168v7.919c0 1.81-.086 3.089-.257 3.836-.171.747-.489 1.378-.953 1.892-.457.514-1.07.926-1.841 1.234-.771.302-1.777.453-3.018.453-1.498 0-2.636-.165-3.414-.494-.771-.336-1.381-.768-1.83-1.296-.449-.535-.746-1.094-.888-1.676-.207-.864-.31-2.139-.31-3.826v-8.041M41.538 35.264c0-1.536.226-2.825.679-3.867a7.135 7.135 0 0 1 1.379-2.067c.588-.61 1.23-1.063 1.926-1.358.926-.398 1.994-.596 3.203-.597 2.19 0 3.94.689 5.251 2.067.853.892 1.43 2.01 1.731 3.353l-3.146.033c-.187-.632-.466-1.157-.835-1.576-.743-.85-1.733-1.275-2.97-1.275s-2.233.432-2.99 1.296c-.757.857-1.135 2.153-1.135 3.888m-.001.001c0 1.707.389 3.003 1.166 3.888.777.878 1.764 1.316 2.96 1.316s2.176-.436 2.94-1.306c.425-.485.733-1.102.924-1.852l3.151.07c-.277 1.465-.868 2.676-1.773 3.633-1.304 1.371-3.048 2.057-5.231 2.057-2.21 0-3.967-.682-5.271-2.047-1.304-1.371-1.956-3.257-1.956-5.657M57.611 42.71V27.633h2.69l6.879 10.441V27.633h2.798V42.71h-2.622L60.28 32.134l.294 10.576h-2.963"/><radialGradient id="a" cx="89.13" cy="221.705" r="65.007" gradientTransform="matrix(.6606 0 0 -.8249 -43.08 193.941)" gradientUnits="userSpaceOnUse"><stop offset="0" stop-color="#f0f4f7"/><stop offset=".5" stop-color="#0ebfe4"/><stop offset="1" stop-color="#1e3a6b"/></radialGradient><path fill="url(#a)" d="M53.034 51.013l9.764-.027c-5.547 9.518-15.864 15.92-27.668 15.92-17.664 0-32-14.336-32-32s14.336-32 32-32c12.003 0 22.469 6.62 27.945 16.405l-9.611-.022c-4.419-5.182-10.995-8.47-18.334-8.47-13.296 0-24.087 10.791-24.087 24.087S21.834 58.993 35.13 58.993c7.104 0 13.494-3.082 17.904-7.98z"/></svg>