<?xml version="1.0" encoding="UTF-8" standalone="no"?>
<svg
   xmlns:dc="http://purl.org/dc/elements/1.1/"
   xmlns:cc="http://creativecommons.org/ns#"
   xmlns:rdf="http://www.w3.org/1999/02/22-rdf-syntax-ns#"
   xmlns:svg="http://www.w3.org/2000/svg"
   xmlns="http://www.w3.org/2000/svg"
   viewBox="0 0 2246.5466 817.53333"
   height="817.53333"
   width="2246.5466"
   xml:space="preserve"
   id="svg2"
   version="1.1"><metadata
     id="metadata8"><rdf:RDF><cc:Work
         rdf:about=""><dc:format>image/svg+xml</dc:format><dc:type
           rdf:resource="http://purl.org/dc/dcmitype/StillImage" /></cc:Work></rdf:RDF></metadata><defs
     id="defs6"><clipPath
       id="clipPath22"
       clipPathUnits="userSpaceOnUse"><path
         id="path20"
         d="m 4766.31,1522.87 c -25.95,-28.9 -52.68,-57.19 -80.1,-84.69 -412.89,-412.42 -981.48,-667.121 -1611.14,-667.282 -629.89,0.161 -1198.44,254.862 -1611.29,667.282 -412.65,413.03 -667.26,981.63 -667.339,1611.29 0.079,629.93 254.689,1198.44 667.339,1611.17 412.85,412.8 981.4,667.34 1611.29,667.5 629.66,-0.16 1198.25,-254.7 1611.14,-667.5 47.62,-47.63 92.93,-97.28 136.19,-148.87 h 930.28 C 5235.06,5459.6 4229.18,6102.63 3073.09,6102.71 1387.64,6102.55 21.7539,4736.63 21.5625,3051.33 21.7539,1365.92 1387.64,0.140625 3073.09,0 4201.3,0.140625 5186.27,612.398 5714.3,1522.87 h -947.99" /></clipPath></defs><g
     transform="matrix(1.3333333,0,0,-1.3333333,0,817.53333)"
     id="g10"><g
       transform="scale(0.1)"
       id="g12"><path
         id="path14"
         style="fill:#ffffff;fill-opacity:1;fill-rule:nonzero;stroke:none"
         d="m 4766.31,1522.87 c -25.95,-28.9 -52.68,-57.19 -80.1,-84.69 -412.89,-412.42 -981.48,-667.121 -1611.14,-667.282 -629.89,0.161 -1198.44,254.862 -1611.29,667.282 -412.65,413.03 -667.26,981.63 -667.339,1611.29 0.079,629.93 254.689,1198.44 667.339,1611.17 412.85,412.8 981.4,667.34 1611.29,667.5 629.66,-0.16 1198.25,-254.7 1611.14,-667.5 47.62,-47.63 92.93,-97.28 136.19,-148.87 h 930.28 C 5235.06,5459.6 4229.18,6102.63 3073.09,6102.71 1387.64,6102.55 21.7539,4736.63 21.5625,3051.33 21.7539,1365.92 1387.64,0.140625 3073.09,0 4201.3,0.140625 5186.27,612.398 5714.3,1522.87 h -947.99" /><g
         id="g16"><g
           clip-path="url(#clipPath22)"
           id="g18"><path
             id="path24"
             style="fill:#ffffff;fill-opacity:1;fill-rule:nonzero;stroke:none"
             d="m 4766.31,1522.87 c -25.95,-28.9 -52.68,-57.19 -80.1,-84.69 -412.89,-412.42 -981.48,-667.121 -1611.14,-667.282 -629.89,0.161 -1198.44,254.862 -1611.29,667.282 -412.65,413.03 -667.26,981.63 -667.339,1611.29 0.079,629.93 254.689,1198.44 667.339,1611.17 412.85,412.8 981.4,667.34 1611.29,667.5 629.66,-0.16 1198.25,-254.7 1611.14,-667.5 47.62,-47.63 92.93,-97.28 136.19,-148.87 h 930.28 C 5235.06,5459.6 4229.18,6102.63 3073.09,6102.71 1387.64,6102.55 21.7539,4736.63 21.5625,3051.33 21.7539,1365.92 1387.64,0.140625 3073.09,0 4201.3,0.140625 5186.27,612.398 5714.3,1522.87 h -947.99" /></g></g><path
         id="path26"
         style="fill:#ffffff;fill-opacity:1;fill-rule:nonzero;stroke:none"
         d="M 1760.98,2293.48 H 2074.4 V 3718.87 H 1760.98 V 2293.48" /><path
         id="path28"
         style="fill:#ffffff;fill-opacity:1;fill-rule:nonzero;stroke:none"
         d="m 3519.81,2832.54 c 0,-385.55 -227.5,-573.11 -608.91,-573.11 -383.36,0 -606.94,185.55 -606.94,573.11 v 886.33 h 313.43 v -886.33 c 0,-155.72 39.94,-309.55 293.51,-309.55 223.61,0 295.48,97.75 295.48,309.55 v 886.33 h 313.43 v -886.33" /><path
         id="path30"
         style="fill:#ffffff;fill-opacity:1;fill-rule:nonzero;stroke:none"
         d="m 4699.73,3239.7 c -19.97,141.65 -155.87,249.65 -311.41,249.65 -281.58,0 -387.4,-239.62 -387.4,-489.31 0,-237.42 105.82,-477.05 387.4,-477.05 191.59,0 299.29,131.62 323.3,319.33 h 303.48 c -31.93,-355.23 -277.46,-582.89 -626.78,-582.89 -441.33,0 -700.92,329.44 -700.92,740.61 0,423.34 259.59,752.78 700.92,752.78 313.27,0 576.89,-183.6 614.81,-513.12 h -303.4" /><path
         id="path32"
         style="fill:#ffffff;fill-opacity:1;fill-rule:nonzero;stroke:none"
         d="m 5188.75,3718.87 h 311.49 l 594.86,-956.25 h 4.04 v 956.25 H 6392.6 V 2293.48 h -313.43 l -592.99,954.15 h -3.88 v -954.15 h -293.55 v 1425.39" /><path
         id="path34"
         style="fill:#ffffff;fill-opacity:1;fill-rule:nonzero;stroke:none"
         d="m 11687.8,3387.09 53.9,139.93 c 21.4,58.07 249.6,690.89 314.1,953.51 28,-4.33 56.1,-13.01 94.8,-13.01 43,0 64.5,6.46 94.6,13.01 2.2,-4.33 133.4,-434.82 167.9,-538.05 62.4,-189.44 129.2,-376.64 198,-561.74 62.4,163.52 75.3,198 176.5,499.23 62.3,185.1 101.2,320.69 178.6,600.56 23.7,-6.55 58.1,-13.01 99.1,-13.01 32.2,0 64.5,4.34 96.8,13.01 -129.1,-322.91 -202.3,-514.46 -320.6,-850.18 -120.6,-344.28 -129.3,-370.19 -211,-626.36 -32.3,6.55 -56,13.01 -86.1,13.01 -32.3,0 -73.1,-10.79 -92.5,-13.01 -79.7,260.51 -88.3,288.53 -122.7,385.32 -25.8,73.19 -135.6,402.45 -159.3,469.19 -23.6,68.86 -64.6,178.64 -88.2,247.5 l -64.6,-178.64 c -109.8,-305.68 -120.6,-340.05 -204.4,-585.44 -30.2,-88.2 -71,-225.93 -105.5,-337.93 -36.6,8.67 -58.2,13.01 -81.7,13.01 -23.9,0 -58.1,-6.46 -88.4,-13.01 l -53.7,163.62 c -77.5,236.72 -142.1,430.48 -241.2,710.24 -58,163.53 -133.3,370.2 -221.6,602.68 43.1,-4.33 116.2,-13.01 167.9,-13.01 49.5,0 96.8,4.34 150.6,13.01 66.8,-254.05 206.7,-673.64 307.8,-972.87 l 40.9,-120.57" /><path
         id="path36"
         style="fill:#ffffff;fill-opacity:1;fill-rule:nonzero;stroke:none"
         d="m 14398.8,4179.19 h -21.5 c -25.8,51.62 -101.2,202.24 -411.1,202.24 -359.5,0 -551,-236.72 -551,-643.41 0,-75.4 0,-275.52 131.3,-449.93 77.4,-101.12 193.6,-195.78 389.5,-195.78 264.7,0 400.4,131.26 497.1,245.28 l 23.7,-15.02 -23.7,-213.12 c -163.5,-90.34 -348.6,-135.49 -544.5,-135.49 -419.6,0 -768.3,260.39 -768.3,744.6 0,432.61 264.8,779.11 839.4,779.11 176.4,0 331.5,-30.05 503.6,-107.58 l -64.5,-210.9" /><path
         id="path38"
         style="fill:#ffffff;fill-opacity:1;fill-rule:nonzero;stroke:none"
         d="m 14900.4,3770.29 c 38.8,-4.34 75.3,-8.68 114.1,-8.68 241.1,0 299.2,206.67 299.2,320.7 0,170.07 -84,292.76 -262.6,292.76 -53.8,0 -101.2,-4.33 -150.7,-8.66 z m 0,-428.37 c 0,-193.66 8.6,-266.86 15,-337.93 -49.4,8.67 -94.6,13.01 -150.6,13.01 -55.9,0 -101.1,-4.34 -148.5,-13.01 10.8,172.29 15.1,256.17 15.1,310.01 l 4.3,527.26 c 0,94.77 0,279.76 -4.3,368.07 l -10.8,271.2 c 49.5,-4.33 105.5,-10.79 215.2,-10.79 47.4,0 249.7,10.79 292.8,10.79 103.2,0 215.2,-8.67 316.3,-81.86 81.8,-60.19 146.4,-146.29 146.4,-303.45 0,-204.46 -127,-439.06 -542.4,-439.06 -64.5,0 -99,4.34 -148.5,8.57 v -322.81" /><g
         transform="scale(1.03215)"
         id="g40"><path
           id="path42"
           style="fill:#ffffff;fill-opacity:1;fill-rule:nonzero;stroke:none"
           d="m 15551.5,4005.17 -212.8,-512.89 c 73.2,-2.15 144,-8.41 216.9,-8.41 64.7,0 127.2,4.21 192,8.41 z m 344,-863.25 -87.5,221.03 c -89.8,4.2 -177.3,8.41 -266.9,8.41 -83.5,0 -166.9,-4.21 -250.4,-8.41 -66.6,-160.57 -133.4,-333.56 -166.7,-452.52 -27.1,4.2 -66.7,12.6 -100.1,12.6 -35.4,0 -64.6,-8.4 -93.9,-12.6 l 242.1,537.99 c 210.5,471.28 331.4,742.43 381.4,913.36 23,-6.25 43.9,-10.44 68.9,-10.44 22.8,0 43.8,4.19 66.7,10.44 100.1,-285.71 225.2,-577.55 300.3,-752.78 79.2,-181.39 216.8,-496.19 310.6,-698.57 -31.2,2.15 -104.2,12.6 -162.6,12.6 -58.4,0 -116.8,-10.45 -154.3,-12.6 l -87.6,231.49" /></g><path
         id="path44"
         style="fill:#ffffff;fill-opacity:1;fill-rule:nonzero;stroke:none"
         d="m 11195,2383.78 14.2,36.99 c 5.7,15.43 66.1,182.89 83.1,252.45 7.5,-1.21 15,-3.53 25.1,-3.53 11.4,0 17.1,1.8 25.1,3.53 0.6,-1.21 35.3,-115.13 44.4,-142.46 16.5,-50.11 34.3,-99.7 52.5,-148.7 16.6,43.35 19.9,52.42 46.7,132.17 16.6,49 26.7,84.89 47.2,158.99 6.4,-1.73 15.4,-3.53 26.2,-3.53 8.6,0 17.1,1.2 25.7,3.53 -34.2,-85.49 -53.5,-136.21 -84.9,-225.02 -31.8,-91.25 -34.2,-98.09 -55.8,-165.84 -8.5,1.69 -14.7,3.43 -22.7,3.43 -8.6,0 -19.5,-2.82 -24.6,-3.43 -21.1,68.95 -23.3,76.32 -32.5,102.03 -6.8,19.35 -35.9,106.46 -42.1,124.19 -6.3,18.27 -17.2,47.29 -23.4,65.55 l -17,-47.28 c -29.2,-80.98 -32,-90.04 -54.2,-155.07 -7.9,-23.27 -18.8,-59.79 -27.9,-89.42 -9.7,2.33 -15.4,3.43 -21.7,3.43 -6.2,0 -15.3,-1.74 -23.3,-3.43 l -14.2,43.35 c -20.5,62.61 -37.7,113.92 -63.9,187.91 -15.3,43.35 -35.3,98 -58.7,159.6 11.4,-1.21 30.9,-3.53 44.5,-3.53 13.1,0 25.6,1.2 39.8,3.53 17.8,-67.24 54.8,-178.35 81.6,-257.59 l 10.8,-31.85" /><path
         id="path46"
         style="fill:#ffffff;fill-opacity:1;fill-rule:nonzero;stroke:none"
         d="m 11798.2,2303.43 c 96.9,0 134.5,91.24 134.5,172.69 0,92.87 -34.8,172.6 -134.5,172.6 -98,0 -134.4,-94.57 -134.4,-172.6 0,-84.98 36.4,-172.69 134.4,-172.69 z m 212.6,179.44 c 0,-127.02 -86,-208.47 -212.6,-208.47 -118.4,0 -212.4,70.05 -212.4,194.86 0,144.69 99.1,208.39 214.1,208.39 106.6,0 210.9,-58.06 210.9,-194.78" /><path
         id="path48"
         style="fill:#ffffff;fill-opacity:1;fill-rule:nonzero;stroke:none"
         d="m 12146.4,2494.87 c 10.8,-0.6 24.4,-1.71 39.3,-1.71 57,0 78,41.65 78,78.64 0,23.89 -3.9,44.45 -23.9,59.17 -15.3,11.4 -34.2,14.23 -53,14.23 -10.8,0 -31.9,-2.22 -40.4,-2.83 z m 109.3,-41.64 c 8.6,-11.89 21.2,-30.73 29.7,-42.63 44.9,-63.32 60.3,-83.18 96.2,-128.24 -15.9,1.69 -30.1,3.43 -50.7,3.43 -22.1,0 -29,-1.1 -46.1,-3.43 -8.5,13.11 -21.1,34.17 -29.7,47.29 -29,45.05 -64.3,95.16 -95.1,138.51 h -13.6 v -80.96 c 0,-16.53 2.3,-90.03 2.3,-104.84 -11.4,1.1 -23.9,3.43 -38.1,3.43 -13.3,0 -26.8,-1.74 -39.5,-3.43 4.7,112.31 5.2,124.81 5.2,234.69 0,74.7 0,82.67 -4,156.17 13.2,-1.21 27.9,-2.93 57,-2.93 14.8,0 80.9,2.93 94,2.93 37.1,0 64.9,-4.64 89.4,-28.02 17.1,-16.44 26.2,-39.83 26.2,-63.73 0,-63.2 -47.3,-95.68 -99.1,-105.35 l 15.9,-22.89" /><path
         id="path50"
         style="fill:#ffffff;fill-opacity:1;fill-rule:nonzero;stroke:none"
         d="m 12422.6,2517.66 c 0,25.1 0,30.75 -1.6,81.46 -0.6,11.99 -1.8,63.21 -2.3,74.1 14.2,-2.93 25.1,-3.53 39.3,-3.53 14.2,0 25.6,1.2 39.8,3.53 -3.9,-86.1 -5.6,-157.78 -5.6,-245.58 0,-39.91 1,-76.93 1.7,-108.18 h 10.2 c 16.6,0 98.5,0 132.2,5.04 -1.7,-6.26 -2.9,-9.68 -2.9,-22.68 0,-8.57 0.6,-12.1 2.9,-19.46 -29.1,1.1 -78.1,3.43 -108.9,3.43 -36.5,0 -67.2,-1.1 -108.7,-3.43 0,9.17 3.9,141.23 3.9,155.46 v 79.84" /><path
         id="path52"
         style="fill:#ffffff;fill-opacity:1;fill-rule:nonzero;stroke:none"
         d="m 12755.3,2394.67 c 0,-26.21 1.7,-53.03 2.8,-79.25 12.5,-0.6 63.2,-2.82 77.4,-2.82 37.6,0 134.5,27.94 134.5,174.31 0,73.5 -34.8,156.07 -153.2,156.07 -19.4,0 -39.4,-1.12 -58.7,-2.83 -1.1,-22.79 -2.8,-46.17 -2.8,-68.95 z m 207.8,-79.85 c -39.8,-25.62 -76.9,-32.46 -123.6,-32.46 -34.7,0 -70,2.93 -104.8,2.93 -17.6,0 -35.9,-1.83 -53.5,-2.93 l 3.4,104.24 c 0.5,25.09 0.5,37.6 0.5,105.46 0,35.87 0.6,71.17 -1.1,107.06 -1.1,24.49 -1.7,49 -2.8,74.1 15.4,-1.21 31.2,-2.93 46.7,-2.93 30.7,0 64.4,2.93 98.5,2.93 48.4,0 108.8,-2.33 156.1,-39.42 43.9,-34.08 65.6,-85.39 65.6,-144.67 0,-80.24 -31.4,-140.14 -85,-174.31" /><path
         id="path54"
         style="fill:#ffffff;fill-opacity:1;fill-rule:nonzero;stroke:none"
         d="m 13573.3,2593.48 h -5.7 c -6.8,13.6 -26.8,53.51 -108.7,53.51 -95.2,0 -145.9,-62.69 -145.9,-170.36 0,-19.95 0,-72.89 34.7,-119.07 20.5,-26.81 51.3,-51.81 103.1,-51.81 70.1,0 105.9,34.79 131.5,64.92 l 6.4,-3.94 -6.4,-56.45 c -43.2,-23.88 -92.2,-35.88 -144,-35.88 -111.1,0 -203.5,68.95 -203.5,197.09 0,114.52 70.2,206.16 222.2,206.16 46.8,0 87.8,-7.96 133.4,-28.43 l -17.1,-55.74" /><path
         id="path56"
         style="fill:#ffffff;fill-opacity:1;fill-rule:nonzero;stroke:none"
         d="m 13827.7,2303.43 c 96.9,0 134.4,91.24 134.4,172.69 0,92.87 -34.7,172.6 -134.4,172.6 -97.9,0 -134.5,-94.57 -134.5,-172.6 0,-84.98 36.6,-172.69 134.5,-172.69 z m 212.6,179.44 c 0,-127.02 -86.1,-208.47 -212.6,-208.47 -118.4,0 -212.5,70.05 -212.5,194.86 0,144.69 99.1,208.39 214.3,208.39 106.5,0 210.8,-58.06 210.8,-194.78" /><path
         id="path58"
         style="fill:#ffffff;fill-opacity:1;fill-rule:nonzero;stroke:none"
         d="m 14174.1,2637.22 c 37.8,-76.81 53.7,-107.06 107.8,-203.84 l 30.8,-54.74 21,36.99 c 53.6,94.06 78.7,141.34 136.7,257.59 4.1,-1.21 8.6,-1.73 12.6,-1.73 4,0 8,0.52 11.9,1.73 l 4.7,-47.4 c 6.2,-67.13 13.6,-129.83 22.7,-198.18 4.6,-34.17 16.5,-116.76 22.8,-145.28 -13.7,1.69 -33,3.43 -41,3.43 -10.8,0 -21.1,-1.1 -38.7,-3.43 l -1.8,21.07 c -1.1,11.39 -3.9,62.1 -5.1,72.38 -2.9,26.21 -16.5,141.24 -18.2,165.24 -38.2,-64.93 -102,-181.17 -135.6,-258.69 -4,0.61 -7.5,1.1 -11.4,1.1 -3.4,0 -7.4,-0.49 -10.9,-1.1 -21.6,43.35 -35.8,67.24 -78.5,149.81 -8.6,16.54 -49,88.32 -57,103.13 -10.3,-79.74 -19.9,-167.46 -24,-252.94 -10.2,2.33 -19.3,3.43 -26.1,3.43 -9.2,0 -16.5,-1.74 -24,-3.43 l 3.5,17.65 c 13.6,70.66 47.7,307.07 54.6,373.21 4.5,-1.21 8.6,-1.73 13.2,-1.73 3.9,0 8.5,1.13 12.4,1.73 l 17.6,-36" /><path
         id="path60"
         style="fill:#ffffff;fill-opacity:1;fill-rule:nonzero;stroke:none"
         d="m 14681.5,2637.22 c 37.7,-76.81 53.7,-107.06 107.7,-203.84 l 30.9,-54.74 21,36.99 c 53.6,94.06 78.7,141.34 136.7,257.59 4,-1.21 8.6,-1.73 12.7,-1.73 3.9,0 7.9,0.52 11.8,1.73 l 4.6,-47.4 c 6.2,-67.13 13.7,-129.83 22.8,-198.18 4.6,-34.17 16.5,-116.76 22.7,-145.28 -13.6,1.69 -32.9,3.43 -41,3.43 -10.8,0 -20.9,-1.1 -38.7,-3.43 l -1.7,21.07 c -1.1,11.39 -3.9,62.1 -5.1,72.38 -2.9,26.21 -16.5,141.24 -18.3,165.24 -38.1,-64.93 -101.9,-181.17 -135.5,-258.69 -4,0.61 -7.5,1.1 -11.4,1.1 -3.4,0 -7.4,-0.49 -10.9,-1.1 -21.6,43.35 -35.9,67.24 -78.5,149.81 -8.6,16.54 -49,88.32 -57.1,103.13 -10.2,-79.74 -19.8,-167.46 -23.9,-252.94 -10.3,2.33 -19.3,3.43 -26.2,3.43 -9.1,0 -16.5,-1.74 -23.9,-3.43 l 3.5,17.65 c 13.6,70.66 47.7,307.07 54.6,373.21 4.5,-1.21 8.6,-1.73 13.1,-1.73 3.9,0 8.6,1.13 12.5,1.73 l 17.6,-36" /><path
         id="path62"
         style="fill:#ffffff;fill-opacity:1;fill-rule:nonzero;stroke:none"
         d="m 15110.5,2673.22 c 10.9,-1.21 32,-3.53 40.5,-3.53 12.5,0 26.8,1.8 40.5,3.53 -6.3,-42.25 -6.3,-140.75 -6.3,-198.32 0,-84.87 1.1,-146.37 5.7,-192.54 -13.1,0.61 -26.9,3.43 -39.9,3.43 -12.6,0 -28.5,-2.82 -41,-3.43 6.2,67.75 6.2,161.81 6.2,259.29 0,35.78 0,76.32 -5.7,131.57" /><path
         id="path64"
         style="fill:#ffffff;fill-opacity:1;fill-rule:nonzero;stroke:none"
         d="m 15272.4,2367.84 c 26.2,-56.96 54.7,-65.52 88.2,-65.52 45.1,0 74.6,30.14 74.6,71.18 0,45.06 -35.8,60.98 -46.6,65.52 -16,6.85 -42.7,17.14 -58.7,23.89 -55.3,24.5 -71.7,53.64 -71.7,100.81 0,50.23 29.5,113.93 132.7,113.93 41.6,0 66.7,-10.78 94.5,-23.28 -11.4,-27.92 -12.5,-32.46 -17.6,-54.05 h -8 c -8.5,32.37 -38.8,49.5 -74.7,49.5 -44.9,0 -67.1,-27.91 -67.1,-61.5 0,-41.63 29,-53.02 79.1,-72.36 44,-17.05 61,-23.3 77.5,-41.55 23.9,-25.7 27.9,-59.28 27.9,-75.2 0,-58.17 -40.4,-124.81 -144.6,-124.81 -49.1,0 -86.1,18.85 -106.5,29.03 9.5,29.64 10.1,37.11 13.1,64.41 h 7.9" /><path
         id="path66"
         style="fill:#ffffff;fill-opacity:1;fill-rule:nonzero;stroke:none"
         d="m 15559.8,2367.84 c 26.3,-56.96 54.8,-65.52 88.4,-65.52 44.9,0 74.7,30.14 74.7,71.18 0,45.06 -35.9,60.98 -46.8,65.52 -16,6.85 -42.8,17.14 -58.7,23.89 -55.2,24.5 -71.8,53.64 -71.8,100.81 0,50.23 29.7,113.93 132.8,113.93 41.5,0 66.6,-10.78 94.6,-23.28 -11.4,-27.92 -12.5,-32.46 -17.7,-54.05 h -7.9 c -8.6,32.37 -38.9,49.5 -74.7,49.5 -45,0 -67.2,-27.91 -67.2,-61.5 0,-41.63 29,-53.02 79.2,-72.36 43.8,-17.05 60.9,-23.3 77.5,-41.55 23.9,-25.7 27.9,-59.28 27.9,-75.2 0,-58.17 -40.5,-124.81 -144.8,-124.81 -49,0 -86,18.85 -106.5,29.03 9.8,29.64 10.2,37.11 13.1,64.41 h 7.9" /><path
         id="path68"
         style="fill:#ffffff;fill-opacity:1;fill-rule:nonzero;stroke:none"
         d="m 15848.9,2673.22 c 10.8,-1.21 31.8,-3.53 40.4,-3.53 12.5,0 26.8,1.8 40.4,3.53 -6.2,-42.25 -6.2,-140.75 -6.2,-198.32 0,-84.87 1.2,-146.37 5.6,-192.54 -13,0.61 -26.7,3.43 -39.8,3.43 -12.5,0 -28.5,-2.82 -41,-3.43 6.2,67.75 6.2,161.81 6.2,259.29 0,35.78 0,76.32 -5.6,131.57" /><g
         transform="scale(1.00698)"
         id="g70"><path
           id="path72"
           style="fill:#ffffff;fill-opacity:1;fill-rule:nonzero;stroke:none"
           d="m 16089,2287.47 c 96.2,0 133.5,90.61 133.5,171.5 0,92.22 -34.5,171.4 -133.5,171.4 -97.3,0 -133.5,-93.91 -133.5,-171.4 0,-84.39 36.2,-171.5 133.5,-171.5 z m 211,178.2 c 0,-126.14 -85.3,-207.03 -211,-207.03 -117.6,0 -211.1,69.57 -211.1,193.52 0,143.68 98.6,206.94 212.8,206.94 105.8,0 209.3,-57.66 209.3,-193.43" /></g><g
         transform="scale(1.03153)"
         id="g74"><path
           id="path76"
           style="fill:#ffffff;fill-opacity:1;fill-rule:nonzero;stroke:none"
           d="m 15973.7,2436.32 c 0,51.89 -0.7,103.79 -1.2,155.19 4.5,-0.58 8.8,-1.17 13.3,-1.17 4.4,0 8.2,0.59 12.7,1.17 52.4,-58.04 101.5,-109.36 168.4,-174.55 l 65.1,-64.01 c 10.6,-9.98 15.6,-13.89 27.7,-23.74 v 122.53 c 0,46.91 -2.7,94.43 -6.6,139.77 6.6,-1.67 13.7,-3.42 23.7,-3.42 10,0 16.5,1.75 23.2,3.42 -5,-66.94 -6.1,-106.15 -6.1,-186.68 0,-32.04 0.6,-111.6 0.6,-140.23 0,-12.23 0.5,-40.86 0.5,-54.74 -3.8,0.48 -7.7,1.08 -11.1,1.08 -3.8,0 -7.7,-0.6 -11.5,-1.08 -70.1,76.23 -206,211.5 -264.6,265.06 0,-75.06 0.6,-115.32 1.8,-173.96 0.4,-31.96 1,-37.52 4.9,-88.36 -6.1,0.59 -17.3,3.33 -24.9,3.33 -8.3,0 -15.3,-1.69 -22,-3.33 l 4.3,76.82 c 1.1,14.84 1.8,56.29 1.8,71.74 v 75.16" /></g><path
         id="path78"
         style="fill:#ffffff;fill-opacity:1;fill-rule:nonzero;stroke:none"
         d="m 11257.1,1619.81 c 96.9,0 134.4,91.13 134.4,172.58 0,92.85 -34.7,172.6 -134.4,172.6 -98,0 -134.4,-94.46 -134.4,-172.6 0,-84.88 36.4,-172.58 134.4,-172.58 z m 212.5,179.44 c 0,-127.03 -86.1,-208.48 -212.5,-208.48 -118.5,0 -212.6,70.06 -212.6,194.87 0,144.67 99.1,208.49 214.3,208.49 106.5,0 210.8,-58.18 210.8,-194.88" /><path
         id="path80"
         style="fill:#ffffff;fill-opacity:1;fill-rule:nonzero;stroke:none"
         d="m 11531.3,1829.5 c 0,53.43 -0.5,107.05 -1.1,159.98 4.5,-0.49 9.1,-1.1 13.7,-1.1 4.5,0 8.5,0.61 13,1.1 54.2,-59.77 104.9,-112.7 173.8,-179.94 l 67.2,-66.13 c 10.8,-10.29 16,-14.23 28.6,-24.5 v 126.51 c 0,48.39 -3,97.39 -6.9,144.06 6.9,-1.6 14.2,-3.31 24.5,-3.31 10.2,0 17.2,1.71 23.9,3.31 -5.1,-68.85 -6.3,-109.27 -6.3,-192.45 0,-33.06 0.6,-115.12 0.6,-144.77 0,-12.48 0.6,-42.14 0.6,-56.34 -4,0.49 -8,1.09 -11.3,1.09 -4.2,0 -8.1,-0.6 -12.1,-1.09 -72.3,78.52 -212.4,218.14 -272.8,273.41 0,-77.53 0.5,-119.08 1.7,-179.46 0.5,-32.96 1.1,-38.71 5,-91.15 -6.2,0.62 -17.6,3.34 -25.6,3.34 -8.5,0 -15.9,-1.61 -22.8,-3.34 l 4.7,79.15 c 1.1,15.43 1.6,58.17 1.6,74.1 v 77.53" /><path
         id="path82"
         style="fill:#ffffff;fill-opacity:1;fill-rule:nonzero;stroke:none"
         d="m 12162,1801.57 c 10.3,-1.21 19.9,-2.32 30.2,-2.32 63.7,0 79.2,54.74 79.2,84.89 0,45.07 -22.2,77.53 -69.5,77.53 -14.3,0 -26.8,-1.12 -39.9,-2.32 z m 0,-113.41 c 0,-51.23 2.3,-70.68 4,-89.44 -13.1,2.23 -25.1,3.34 -39.9,3.34 -14.8,0 -26.7,-1.11 -39.3,-3.34 2.8,45.59 4,67.76 4,82.07 l 1.1,139.63 c 0,25 0,74 -1.1,97.31 l -2.9,71.75 c 13.1,-1.1 27.9,-2.81 56.9,-2.81 12.6,0 66.2,2.81 77.5,2.81 27.4,0 57,-2.19 83.9,-21.57 21.5,-15.93 38.6,-38.7 38.6,-80.35 0,-54.13 -33.6,-116.24 -143.5,-116.24 -17,0 -26.2,1.22 -39.3,2.32 v -85.48" /><path
         id="path84"
         style="fill:#ffffff;fill-opacity:1;fill-rule:nonzero;stroke:none"
         d="m 12462.1,1811.25 c 10.8,-0.6 24.5,-1.71 39.3,-1.71 57,0 78.1,41.53 78.1,78.62 0,23.9 -4.1,44.38 -23.9,59.19 -15.5,11.39 -34.2,14.32 -53.1,14.32 -10.8,0 -31.8,-2.32 -40.4,-2.93 z m 109.4,-41.64 c 8.5,-12 21,-30.74 29.6,-42.73 45,-63.22 60.4,-83.18 96.2,-128.16 -15.9,1.73 -30.1,3.34 -50.6,3.34 -22.3,0 -29,-1.11 -46.2,-3.34 -8.5,13.12 -21,34.18 -29.6,47.3 -29.1,44.96 -64.4,95.17 -95.2,138.4 h -13.6 v -80.84 c 0,-16.54 2.3,-90.03 2.3,-104.86 -11.4,1.12 -24,3.34 -38.2,3.34 -13.1,0 -26.8,-1.61 -39.3,-3.34 4.5,112.22 5.1,124.82 5.1,234.71 0,74.61 0,82.57 -4,156.05 13.1,-1.1 27.9,-2.81 57.1,-2.81 14.7,0 80.8,2.81 93.9,2.81 37,0 64.9,-4.53 89.4,-27.81 17.2,-16.53 26.3,-39.93 26.3,-63.83 0,-63.3 -47.3,-95.76 -99.1,-105.45 l 15.9,-22.78" /><path
         id="path86"
         style="fill:#ffffff;fill-opacity:1;fill-rule:nonzero;stroke:none"
         d="m 12911.4,1619.81 c 96.9,0 134.5,91.13 134.5,172.58 0,92.85 -34.8,172.6 -134.5,172.6 -98,0 -134.3,-94.46 -134.3,-172.6 0,-84.88 36.3,-172.58 134.3,-172.58 z m 212.6,179.44 c 0,-127.03 -86,-208.48 -212.6,-208.48 -118.4,0 -212.5,70.06 -212.5,194.87 0,144.67 99.2,208.49 214.2,208.49 106.6,0 210.9,-58.18 210.9,-194.88" /><path
         id="path88"
         style="fill:#ffffff;fill-opacity:1;fill-rule:nonzero;stroke:none"
         d="m 13313,1676.76 c 0,-43.25 2.3,-62.1 4,-78.04 -16.5,1.73 -34.8,3.34 -41.6,3.34 -9.7,0 -18.3,-1.11 -38.7,-3.34 2.2,43.26 5.7,87.22 5.7,130.46 l -0.6,158.98 c 0,20.98 -0.6,41.05 -1.2,63.22 h -28.4 c -5.2,0 -59.8,-1.21 -89,-4.03 1.9,6.96 3,14.32 3,21.17 0,6.75 -1.1,14.12 -3,20.96 45.1,-2.81 108.3,-3.31 152.2,-3.31 47.3,0 97.4,0.5 152.1,3.31 -1.7,-9.57 -2.8,-17.03 -2.8,-21.57 0,-6.24 1.1,-11.4 2.8,-20.56 -33.5,3.42 -74.1,4.03 -113.4,4.03 -0.6,-20.46 -1.1,-42.24 -1.1,-63.82 v -210.8" /><path
         id="path90"
         style="fill:#ffffff;fill-opacity:1;fill-rule:nonzero;stroke:none"
         d="m 13541.1,1820.42 c 29.1,0 93,0.52 123.1,3.82 -1.7,-6.13 -2.8,-11.88 -2.8,-20.45 0,-7.96 1.1,-15.32 2.8,-19.37 -14.8,1.22 -29.6,2.33 -43.8,2.93 -26.3,0.5 -53.1,1.12 -79.3,1.12 v -154.45 c 14.8,0 87.8,1.71 136.2,4.03 -2.3,-5.15 -2.8,-10.89 -2.8,-18.85 0,-8.47 0.5,-14.21 2.8,-20.48 -34.2,2.23 -68.3,3.34 -104.8,3.34 -34.2,0 -70.1,-1.11 -106.6,-3.34 1.2,23.9 2.3,47.3 2.8,71.18 1.2,33.08 2.4,102.64 2.4,128.75 0,23.99 -1.2,133.89 -5.2,190.83 28,-1.6 72.4,-3.31 103.1,-3.31 26.4,0 63.9,2.21 104.9,3.31 -1.7,-6.84 -2.8,-11.28 -2.8,-18.15 0,-8.56 1.1,-16.52 2.8,-21.16 l -53.5,2.93 c -21.1,1.21 -26.9,1.21 -79.3,1.21 v -133.89" /><path
         id="path92"
         style="fill:#ffffff;fill-opacity:1;fill-rule:nonzero;stroke:none"
         d="m 14047.1,1909.76 h -5.6 c -6.9,13.71 -26.8,53.61 -108.9,53.61 -95.2,0 -145.9,-62.7 -145.9,-170.37 0,-19.96 0,-72.89 34.8,-119.06 20.6,-26.82 51.3,-51.82 103.1,-51.82 70.1,0 106,34.79 131.7,64.92 l 6.2,-4.02 -6.2,-56.36 c -43.4,-24 -92.4,-35.89 -144.3,-35.89 -111,0 -203.2,68.85 -203.2,197.08 0,114.53 69.9,206.28 222.1,206.28 46.7,0 87.7,-7.96 133.3,-28.54 l -17.1,-55.83" /><path
         id="path94"
         style="fill:#ffffff;fill-opacity:1;fill-rule:nonzero;stroke:none"
         d="m 14275.6,1676.76 c 0,-43.25 2.2,-62.1 3.9,-78.04 -16.5,1.73 -34.8,3.34 -41.6,3.34 -9.7,0 -18.2,-1.11 -38.8,-3.34 2.4,43.26 5.7,87.22 5.7,130.46 l -0.5,158.98 c 0,20.98 -0.6,41.05 -1.1,63.22 h -28.6 c -5.1,0 -59.7,-1.21 -88.8,-4.03 1.6,6.96 2.9,14.32 2.9,21.17 0,6.75 -1.3,14.12 -2.9,20.96 45,-2.81 108.2,-3.31 152.1,-3.31 47.3,0 97.4,0.5 152.2,3.31 -1.8,-9.57 -2.9,-17.03 -2.9,-21.57 0,-6.24 1.1,-11.4 2.9,-20.56 -33.7,3.42 -74.1,4.03 -113.4,4.03 -0.6,-20.46 -1.1,-42.24 -1.1,-63.82 v -210.8" /><path
         id="path96"
         style="fill:#ffffff;fill-opacity:1;fill-rule:nonzero;stroke:none"
         d="m 14503.7,1820.42 c 29,0 92.8,0.52 123.1,3.82 -1.8,-6.13 -2.9,-11.88 -2.9,-20.45 0,-7.96 1.1,-15.32 2.9,-19.37 -14.8,1.22 -29.7,2.33 -44,2.93 -26.2,0.5 -52.9,1.12 -79.1,1.12 v -154.45 c 14.8,0 87.7,1.71 136.1,4.03 -2.2,-5.15 -2.8,-10.89 -2.8,-18.85 0,-8.47 0.6,-14.21 2.8,-20.48 -34.2,2.23 -68.3,3.34 -104.7,3.34 -34.2,0 -70.2,-1.11 -106.6,-3.34 1.1,23.9 2.2,47.3 2.8,71.18 1.1,33.08 2.3,102.64 2.3,128.75 0,23.99 -1.2,133.89 -5.1,190.83 27.8,-1.6 72.4,-3.31 103,-3.31 26.2,0 63.9,2.21 105,3.31 -1.7,-6.84 -2.9,-11.28 -2.9,-18.15 0,-8.56 1.2,-16.52 2.9,-21.16 l -53.7,2.93 c -21,1.21 -26.8,1.21 -79.1,1.21 v -133.89" /><path
         id="path98"
         style="fill:#ffffff;fill-opacity:1;fill-rule:nonzero;stroke:none"
         d="m 14764.1,1710.94 c 0,-26.21 1.7,-53.02 2.8,-79.14 12.5,-0.61 63.2,-2.91 77.5,-2.91 37.7,0 134.4,28.02 134.4,174.39 0,73.5 -34.7,156.07 -153.2,156.07 -19.3,0 -39.3,-1.11 -58.7,-2.84 -1.1,-22.77 -2.8,-46.16 -2.8,-68.95 z m 207.9,-79.75 c -39.8,-25.6 -76.8,-32.47 -123.6,-32.47 -34.8,0 -70.1,2.82 -104.9,2.82 -17.6,0 -35.8,-1.7 -53.5,-2.82 l 3.4,104.26 c 0.6,25.1 0.6,37.6 0.6,105.34 0,36.01 0.5,71.29 -1.2,107.18 -1.1,24.5 -1.6,48.98 -2.8,73.98 15.4,-1.1 31.4,-2.81 46.8,-2.81 30.7,0 64.3,2.81 98.5,2.81 48.5,0 108.8,-2.19 156.2,-39.31 43.7,-34.17 65.5,-85.38 65.5,-144.66 0,-80.36 -31.5,-140.15 -85,-174.32" /><path
         id="path100"
         style="fill:#ffffff;fill-opacity:1;fill-rule:nonzero;stroke:none"
         d="m 15378.3,1897.84 -58.2,-140.23 c 20,-0.49 39.3,-2.22 59.3,-2.22 17.6,0 34.8,1.12 52.4,2.22 z m 93.9,-235.91 -24,60.4 c -24.4,1.21 -48.4,2.32 -72.8,2.32 -22.8,0 -45.6,-1.11 -68.4,-2.32 -18.1,-43.85 -36.4,-91.14 -45.6,-123.61 -7.3,1.12 -18.2,3.34 -27.3,3.34 -9.7,0 -17.6,-2.22 -25.7,-3.34 l 66.1,147 c 57.6,128.74 90.6,202.74 104.3,249.52 6.2,-1.71 12,-2.83 18.8,-2.83 6.3,0 11.9,1.12 18.2,2.83 27.4,-78.04 61.6,-157.79 82,-205.67 21.7,-49.59 59.3,-135.59 84.9,-190.85 -8.6,0.62 -28.4,3.34 -44.4,3.34 -16,0 -31.9,-2.72 -42.2,-3.34 l -23.9,63.21" /><path
         id="path102"
         style="fill:#ffffff;fill-opacity:1;fill-rule:nonzero;stroke:none"
         d="m 15692.4,1811.25 c 10.8,-0.6 24.5,-1.71 39.3,-1.71 57,0 78.1,41.53 78.1,78.62 0,23.9 -4,44.38 -23.9,59.19 -15.5,11.39 -34.3,14.32 -53.1,14.32 -10.7,0 -31.8,-2.32 -40.4,-2.93 z m 109.4,-41.64 c 8.5,-12 21.1,-30.74 29.6,-42.73 45,-63.22 60.4,-83.18 96.3,-128.16 -15.9,1.73 -30.2,3.34 -50.7,3.34 -22.2,0 -29,-1.11 -46.2,-3.34 -8.5,13.12 -21,34.18 -29.6,47.3 -29,44.96 -64.4,95.17 -95.1,138.4 h -13.7 v -80.84 c 0,-16.54 2.2,-90.03 2.2,-104.86 -11.3,1.12 -23.9,3.34 -38.1,3.34 -13.1,0 -26.8,-1.61 -39.3,-3.34 4.5,112.22 5.1,124.82 5.1,234.71 0,74.61 0,82.57 -4,156.05 13.2,-1.1 27.9,-2.81 57,-2.81 14.8,0 80.9,2.81 93.9,2.81 37.1,0 65.1,-4.53 89.6,-27.81 17,-16.53 26.2,-39.93 26.2,-63.83 0,-63.3 -47.3,-95.76 -99.1,-105.45 l 15.9,-22.78" /><path
         id="path104"
         style="fill:#ffffff;fill-opacity:1;fill-rule:nonzero;stroke:none"
         d="m 16037.3,1820.42 c 29.1,0 93,0.52 123.1,3.82 -1.6,-6.13 -2.8,-11.88 -2.8,-20.45 0,-7.96 1.2,-15.32 2.8,-19.37 -14.8,1.22 -29.7,2.33 -43.9,2.93 -26.2,0.5 -52.9,1.12 -79.2,1.12 v -154.45 c 14.9,0 87.8,1.71 136.2,4.03 -2.2,-5.15 -2.8,-10.89 -2.8,-18.85 0,-8.47 0.6,-14.21 2.8,-20.48 -34.2,2.23 -68.4,3.34 -104.7,3.34 -34.3,0 -70.2,-1.11 -106.6,-3.34 1.1,23.9 2.2,47.3 2.8,71.18 1.1,33.08 2.3,102.64 2.3,128.75 0,23.99 -1.2,133.89 -5.1,190.83 27.9,-1.6 72.3,-3.31 103,-3.31 26.3,0 63.8,2.21 104.9,3.31 -1.7,-6.84 -2.8,-11.28 -2.8,-18.15 0,-8.56 1.1,-16.52 2.8,-21.16 l -53.6,2.93 c -21,1.21 -26.8,1.21 -79.2,1.21 v -133.89" /><g
         transform="scale(1.01664)"
         id="g106"><path
           id="path108"
           style="fill:#ffffff;fill-opacity:1;fill-rule:nonzero;stroke:none"
           d="m 16098.9,1866.77 -57.2,-137.94 c 19.7,-0.48 38.7,-2.18 58.3,-2.18 17.3,0 34.1,1.1 51.5,2.18 z m 92.4,-232.05 -23.6,59.41 c -24.1,1.19 -47.6,2.28 -71.7,2.28 -22.3,0 -44.8,-1.09 -67.2,-2.28 -18,-43.13 -35.8,-89.64 -44.8,-121.59 -7.2,1.11 -17.9,3.29 -27,3.29 -9.4,0 -17.3,-2.18 -25.2,-3.29 l 65,144.6 c 56.7,126.63 89.2,199.42 102.6,245.43 6.1,-1.68 11.8,-2.78 18.4,-2.78 6.3,0 11.8,1.1 18,2.78 27,-76.76 60.6,-155.2 80.7,-202.3 21.3,-48.78 58.3,-133.37 83.5,-187.73 -8.4,0.62 -27.9,3.29 -43.7,3.29 -15.7,0 -31.4,-2.67 -41.5,-3.29 l -23.5,62.18" /></g><g
         transform="scale(1.03336)"
         id="g110"><path
           id="path112"
           style="fill:#ffffff;fill-opacity:1;fill-rule:nonzero;stroke:none"
           d="m 16077.3,1629.77 c 25.4,-55.13 53,-63.32 85.5,-63.32 43.4,0 72.2,29.17 72.2,68.87 0,43.51 -34.8,59.02 -45.2,63.41 -15.4,6.65 -41.3,16.59 -56.8,23.23 -53.5,23.6 -69.6,51.7 -69.6,97.56 0,48.48 28.8,110.24 128.5,110.24 40.4,0 64.6,-10.54 91.6,-22.64 -11.1,-27.02 -12.1,-31.4 -17.1,-52.38 h -7.7 c -8.3,31.4 -37.5,47.99 -72.2,47.99 -43.7,0 -65.1,-27.01 -65.1,-59.51 0,-40.29 28.2,-51.32 76.7,-70.05 42.3,-16.57 58.9,-22.63 74.9,-40.28 23.1,-24.79 27,-57.28 27,-72.8 0,-56.2 -39.1,-120.67 -140,-120.67 -47.5,0 -83.2,18.15 -103.1,28.1 9.4,28.68 10,35.91 12.7,62.25 h 7.7" /></g><path
         id="path114"
         style="fill:#ffffff;fill-opacity:1;fill-rule:nonzero;stroke:none"
         d="m 10000.1,3433.67 c -106.56,-161.81 -437.75,-72.7 -437.75,-72.7 0,0 134.8,-17.63 245.9,24.5 42.73,16.23 65.62,44.87 103.84,80.85 44.36,42.05 62,111.81 56.74,175.82 -6.54,78.13 -36.29,150.63 -36.29,150.63 0,0 155.16,115.53 8.29,280.66 -118.36,133.28 -302.35,63.22 -302.35,63.22 0,0 118.56,90.83 222.38,83.47 103.97,-7.36 193.04,-112.71 193.04,-112.71 0,0 -21.8,17.44 -44.1,27.02 -27.04,11.49 -55.38,15.43 -55.38,15.43 0,0 127.58,-82.68 126.98,-168.26 -0.7,-106.07 -112.35,-186.01 -112.35,-186.01 0,0 181.25,-133.88 31.05,-361.92 z m -390.97,672.23 c 0,0 -53.11,204.15 -253.25,201.73 -262.71,-3.12 -310.09,-226.54 -310.09,-226.54 0,0 -27.93,15.94 -67.66,24.4 -31.54,6.76 -71.17,7.26 -106.46,3.03 -68.66,-8.37 -121.47,-94.76 -121.47,-94.76 0,0 -3.95,13.5 5.45,39.11 9.69,26.32 32.54,64.83 32.54,64.83 0,0 -111.58,-101.63 -120.96,-218.08 -9.69,-119.86 82.97,-254.75 82.97,-254.75 0,0 -30.96,-148.7 37.6,-216.95 71.87,-71.48 243.38,-62.61 243.38,-62.61 0,0 -54.05,-40.02 -130.28,-40.83 -65.41,-0.7 -151.13,34.38 -189.51,69.46 -34.88,31.96 -56.97,100.11 -51.23,153.04 7.17,65.63 47.58,114.02 47.58,114.02 0,0 -227.95,144.97 -103.01,379.98 149.18,280.66 427.83,103.03 427.83,103.03 0,0 26.84,83.87 76.74,144.16 49.59,59.78 122.29,95.87 122.29,95.87 0,0 -22.19,4.74 -48.89,-5.13 -26.74,-9.89 -57.89,-34.38 -57.89,-34.38 0,0 20.37,42.84 80.47,68.55 81.76,34.98 219.45,47.18 317.75,-41.74 103.85,-94.06 86.1,-265.44 86.1,-265.44 z m -186.1,-498.93 c 0,0 -10.58,-50.31 -41.52,-83.27 -25.82,-27.63 -57.38,-26.02 -57.38,-26.02 0,0 -29.22,-2.02 -44.96,13.31 -21.47,20.87 -31.25,60.58 -31.25,60.58 0,0 -1.1,15.02 0.09,28.14 1.53,15.22 5.45,28.93 5.45,28.93 0,0 -9.08,-14.21 -13.81,-29.13 -4.43,-13.92 -4.63,-28.84 -4.63,-28.84 0,0 -5.25,10.29 -6.58,30.75 -1.79,28.73 0.12,70.37 0.12,70.37 0,0 9.47,46.37 33.77,70.97 24.9,25 64.63,28.24 64.63,28.24 0,0 34.57,3.21 60.8,-18.16 30.23,-24.79 35.27,-61.29 35.27,-61.29 0,0 2.74,-18.75 2.74,-38.61 0,-22.29 -2.74,-45.97 -2.74,-45.97 z m 944.27,482.69 c -214.4,219.17 -554.4,445 -1039.85,445 -342.66,0 -615.16,-124.2 -813.07,-257.88 -642.58,-434.11 -636.34,-1220.47 -636.34,-1220.47 0,0 6.96,-124.3 17.35,-221.58 7.25,-67.65 19.25,-119.17 19.25,-119.17 0,0 166.95,37.51 403.66,66.64 303.37,37.21 693.21,67.96 693.21,67.96 0,0 88.83,12.18 127.23,84.17 43.14,81.26 36.6,223.2 36.6,223.2 l -4.55,126.22 c 0,0 -2.7,69.46 -53.44,144.77 -58.75,87 -138.01,194.47 -138.01,194.47 0,0 -8.65,5.75 -19.94,28.23 -22.6,44.56 -57.87,125.22 -87.42,186.92 -23.69,49.5 -44.77,86.29 -44.77,86.29 0,0 -7.87,27.63 -7.05,52.63 0.7,23.18 14.32,43.95 14.32,43.95 0,0 2.11,-44.56 13.01,-72.08 11.07,-28.13 35.19,-47.79 35.19,-47.79 l 5.94,67.24 26.31,-99.6 c 0,0 11.7,-34.78 40.93,-75.91 25.2,-35.39 69.16,-80.76 98.4,-118.06 40.22,-51.31 69.77,-91.33 69.77,-91.33 0,0 64.41,-57.06 123.08,-90.74 32.88,-18.85 68.66,-21.98 68.66,-21.98 0,0 31.44,-0.3 81.36,22.48 23.6,10.69 43.95,27.83 71.76,47.49 34.9,24.5 77.44,53.84 106.27,89.12 16.95,20.67 24.71,37.5 43.75,63.01 13.42,17.84 29.75,31.55 43.97,51.32 25.6,35.18 48.08,77.01 59.68,106.05 32.86,82.97 26,134.28 26,134.28 l 23.5,-55.54 c 0,0 20.37,39.11 49.1,57.87 28.32,18.44 64.94,16.63 64.94,16.63 0,0 -41.76,-33.97 -64.94,-70.77 -18.77,-29.74 -19.87,-63.92 -19.87,-63.92 0,0 -42.54,-117.45 -85.68,-193.16 -56.07,-98.39 -116.13,-161.01 -116.13,-161.01 0,0 -46.19,-59.87 -77.83,-119.56 -31.27,-58.87 -47.91,-117.55 -47.91,-117.55 l -5.94,-119.97 11.7,-146.39 c 0,0 8.06,-76.1 51.62,-113.9 53.32,-46.18 145.88,-54.46 145.88,-54.46 0,0 251.62,-6.25 518.9,-36.99 266.6,-30.74 547.3,-87.31 547.3,-87.31 0,0 17.7,75.42 25.2,160.6 7.2,81.65 5.5,177.33 5.5,177.33 0,0 21.7,595.31 -406.6,1033.25" /><path
         id="path116"
         style="fill:#ffffff;fill-opacity:1;fill-rule:nonzero;stroke:none"
         d="m 9903.72,1988.57 c -179.65,-108.77 -373.62,-92.63 -373.62,-92.63 0,0 -82.87,26.2 -124.51,-3.64 -47.89,-34.17 -55.45,-125.2 -55.45,-125.2 0,0 -21.46,-21.38 -58.57,-20.77 -47.27,0.8 -112.62,23.78 -112.62,23.78 0,0 32.87,-2.62 59.08,3.34 24.9,5.74 43.34,20.06 43.34,20.06 0,0 -37.89,0.4 -72.07,4.84 -28.12,3.53 -53.73,11.19 -53.73,11.19 l 36.49,60.08 c 0,0 31.27,50.3 27.22,83.48 -4.02,34.07 -43.24,51.1 -43.24,51.1 0,0 -193.67,109.18 -285.82,278.65 -34.86,64.23 -78.13,164.93 -89.41,230.58 -18.17,105.45 9.37,164.03 9.37,164.03 0,0 27.11,-58.79 100.31,-118.77 29.34,-24 71.78,-50.3 118.56,-69.97 49.9,-20.97 104.84,-35.28 154.55,-57.87 59.78,-27.31 104.76,-63.71 145.78,-93.45 82.17,-59.58 73.5,-145.89 73.5,-145.89 0,0 76.81,78.25 188.71,78.54 75.41,0.21 173.22,-31.45 258.71,-52.01 62.4,-15.03 114.92,-21.48 164.1,-18.95 80,4.23 140.5,31.96 140.5,31.96 0,0 4.2,-87.61 -251.18,-242.48 z M 9831.14,1693 c -76.12,-67.35 -229.26,-63.42 -229.26,-63.42 0,0 127.13,43.46 205.35,104.95 79.85,62.8 110.61,143.75 110.61,143.75 0,0 7.56,-101.81 -86.7,-185.28 z m -859.94,8.26 c 0,0 52.5,-5.04 80.23,0 24.9,4.53 25,19.05 25,19.05 0,0 -53.85,-7.45 -135.39,18.16 -24.49,7.76 -55.25,17.53 -83.59,30.94 -43.13,20.57 -84.67,45.78 -121.68,55.45 -60.78,15.83 -142.13,18.34 -142.13,18.34 0,0 43.94,22.49 128.83,21.28 51.21,-0.7 120.07,-13.61 195.48,-29.73 57.56,-12.31 126.23,-33.68 193.66,-61.71 48.1,-19.96 94.27,-46.08 141.95,-61.7 68.46,-22.37 134.2,-25.61 190.33,-29.94 166.86,-13 301.35,75.51 301.35,75.51 0,0 -123.3,-132.97 -341.06,-147.09 -224.31,-14.52 -432.98,91.44 -432.98,91.44 z m -261.94,264.24 c 86.8,-1.83 172.7,-82.78 172.7,-82.78 0,0 -97.09,31.16 -184.4,32.97 -85.37,1.81 -160.99,-25.71 -160.99,-25.71 0,0 86.81,77.34 172.69,75.52 z m 647.42,776.38 c -696.4,-1.51 -1421.58,-137.62 -1421.58,-137.62 0,0 147.61,-596.02 689.98,-896.34 187.21,-103.75 413.85,-200.54 708.25,-186.71 1140.67,53.63 1389.37,1088.91 1389.37,1088.91 0,0 -668.6,133.26 -1366.02,131.76" /></g></g></svg>