<svg xmlns="http://www.w3.org/2000/svg" viewBox="0 0 2246.5466 817.53333" height="817.533" width="2246.547"><defs><clipPath id="a"><path d="M4766.31 1522.87c-25.95-28.9-52.68-57.19-80.1-84.69-412.89-412.42-981.48-667.121-1611.14-667.282-629.89.161-1198.44 254.862-1611.29 667.282-412.65 413.03-667.26 981.63-667.339 1611.29.079 629.93 254.689 1198.44 667.339 1611.17 412.85 412.8 981.4 667.34 1611.29 667.5 629.66-.16 1198.25-254.7 1611.14-667.5 47.62-47.63 92.93-97.28 136.19-148.87h930.28c-517.62 947.83-1523.5 1590.86-2679.59 1590.94-1685.45-.16-3051.336-1366.08-3051.528-3051.38C21.755 1365.92 1387.64.14 3073.09 0 4201.3.14 5186.27 612.398 5714.3 1522.87h-947.99"/></clipPath></defs><path d="M635.508 614.484a297.555 297.555 0 0 1-10.68 11.292c-55.052 54.99-130.864 88.95-214.819 88.97-83.985-.02-159.792-33.98-214.838-88.97-55.02-55.07-88.968-130.884-88.979-214.839.01-83.99 33.959-159.792 88.979-214.822 55.046-55.04 130.853-88.979 214.838-89 83.955.021 159.767 33.96 214.819 89a307.34 307.34 0 0 1 18.159 19.849h124.037C698.008 89.587 563.891 3.849 409.745 3.839 185.02 3.86 2.901 185.983 2.875 410.689c.026 224.722 182.144 406.826 406.87 406.844 150.428-.018 281.758-81.653 352.162-203.049H635.508" fill="#fff"/><g clip-path="url(#a)" transform="matrix(.13333 0 0 -.13333 0 817.533)"><path d="M4766.31 1522.87c-25.95-28.9-52.68-57.19-80.1-84.69-412.89-412.42-981.48-667.121-1611.14-667.282-629.89.161-1198.44 254.862-1611.29 667.282-412.65 413.03-667.26 981.63-667.339 1611.29.079 629.93 254.689 1198.44 667.339 1611.17 412.85 412.8 981.4 667.34 1611.29 667.5 629.66-.16 1198.25-254.7 1611.14-667.5 47.62-47.63 92.93-97.28 136.19-148.87h930.28c-517.62 947.83-1523.5 1590.86-2679.59 1590.94-1685.45-.16-3051.336-1366.08-3051.528-3051.38C21.755 1365.92 1387.64.14 3073.09 0 4201.3.14 5186.27 612.398 5714.3 1522.87h-947.99" fill="#fff"/></g><path d="M234.797 511.736h41.79V321.684h-41.79v190.052M469.308 439.861c0 51.407-30.333 76.415-81.188 76.415-51.115 0-80.925-24.74-80.925-76.415V321.684h41.79v118.177c0 20.763 5.326 41.274 39.135 41.274 29.815 0 39.397-13.034 39.397-41.274V321.684h41.791v118.177M626.63 385.573c-2.662-18.886-20.782-33.286-41.52-33.286-37.545 0-51.654 31.949-51.654 65.241 0 31.656 14.11 63.607 51.653 63.607 25.546 0 39.906-17.55 43.107-42.578h40.464c-4.257 47.364-36.995 77.719-83.57 77.719-58.845 0-93.457-43.925-93.457-98.748 0-56.445 34.612-100.37 93.456-100.37 41.77 0 76.919 24.48 81.975 68.415h-40.453M691.833 321.684h41.532l79.315 127.5h.539v-127.5h39.128v190.052h-41.791l-79.065-127.22h-.518v127.22h-39.14V321.684M1558.373 365.921l7.187-18.657c2.853-7.743 33.28-92.119 41.88-127.135 3.733.578 7.48 1.735 12.64 1.735 5.733 0 8.6-.861 12.613-1.735.294.578 17.787 57.976 22.387 71.74 8.32 25.259 17.227 50.219 26.4 74.899 8.32-21.803 10.04-26.4 23.533-66.564 8.307-24.68 13.494-42.759 23.814-80.075 3.16.874 7.746 1.735 13.213 1.735 4.293 0 8.6-.579 12.907-1.735-17.214 43.055-26.974 68.595-42.747 113.358-16.08 45.904-17.24 49.358-28.133 83.514-4.307-.873-7.467-1.734-11.48-1.734-4.307 0-9.747 1.438-12.334 1.734-10.626-34.734-11.773-38.47-16.36-51.376-3.44-9.758-18.08-53.66-21.24-62.558-3.146-9.182-8.613-23.819-11.76-33l-8.613 23.818c-14.64 40.758-16.08 45.34-27.253 78.059-4.027 11.76-9.467 30.124-14.067 45.057-4.88-1.156-7.76-1.734-10.893-1.734-3.187 0-7.747.861-11.787 1.734l-7.16-21.816c-10.333-31.562-18.947-57.397-32.16-94.698-7.733-21.804-17.773-49.36-29.547-80.358 5.747.578 15.494 1.735 22.387 1.735 6.6 0 12.907-.579 20.08-1.735 8.907 33.874 27.56 89.819 41.04 129.716l5.453 16.076M1919.84 260.308h-2.867c-3.44-6.883-13.493-26.965-54.813-26.965-47.933 0-73.467 31.562-73.467 85.788 0 10.053 0 36.736 17.507 59.99 10.32 13.483 25.813 26.104 51.933 26.104 35.294 0 53.387-17.501 66.28-32.704l3.16 2.003-3.16 28.416c-21.8 12.045-46.48 18.065-72.6 18.065-55.946 0-102.44-34.718-102.44-99.28 0-57.681 35.307-103.881 111.92-103.881 23.52 0 44.2 4.007 67.147 14.344l-8.6 28.12M1986.72 314.828c5.173.579 10.04 1.157 15.213 1.157 32.147 0 39.894-27.556 39.894-42.76 0-22.676-11.2-39.034-35.014-39.034-7.173 0-13.493.577-20.093 1.154zm0 57.116c0 25.821 1.147 35.581 2 45.057-6.587-1.156-12.613-1.734-20.08-1.734-7.453 0-13.48.578-19.8 1.734 1.44-22.972 2.013-34.156 2.013-41.334l.574-70.302c0-12.636 0-37.301-.574-49.076l-1.44-36.16c6.6.578 14.067 1.439 28.694 1.439 6.32 0 33.293-1.439 39.04-1.439 13.76 0 28.693 1.156 42.173 10.915 10.907 8.025 19.52 19.505 19.52 40.46 0 27.261-16.933 58.541-72.32 58.541-8.6 0-13.2-.578-19.8-1.142v43.041M2140.197 266.342l-29.285 70.584c10.074.296 19.817 1.157 29.85 1.157 8.904 0 17.505-.58 26.423-1.157zm47.342 118.8l-12.042-30.418c-12.358-.578-24.4-1.157-36.73-1.157-11.492 0-22.97.58-34.46 1.157-9.166 22.098-18.36 45.905-22.942 62.276-3.73-.578-9.18-1.734-13.776-1.734-4.872 0-8.89 1.156-12.922 1.734l33.317-74.038c28.97-64.858 45.608-102.173 52.489-125.697 3.165.86 6.041 1.437 9.482 1.437 3.137 0 6.027-.577 9.179-1.437 13.776 39.32 30.992 79.483 41.327 103.598 10.9 24.963 29.836 68.285 42.745 96.137-4.294-.296-14.34-1.734-22.377-1.734-8.037 0-16.074 1.438-21.235 1.734l-12.055-31.858M1492.667 499.696l1.893-4.932c.76-2.057 8.813-24.385 11.08-33.66 1 .161 2 .47 3.347.47 1.52 0 2.28-.24 3.346-.47.08.161 4.707 15.35 5.92 18.995 2.2 6.681 4.574 13.293 7 19.826 2.214-5.78 2.654-6.989 6.227-17.622 2.213-6.534 3.56-11.319 6.293-21.199.854.23 2.054.47 3.494.47 1.146 0 2.28-.16 3.426-.47-4.56 11.399-7.133 18.161-11.32 30.003-4.24 12.166-4.56 13.078-7.44 22.112-1.133-.226-1.96-.458-3.026-.458-1.147 0-2.6.376-3.28.458-2.814-9.194-3.107-10.176-4.334-13.604-.906-2.58-4.786-14.195-5.613-16.559-.84-2.436-2.293-6.305-3.12-8.74l-2.267 6.304c-3.893 10.797-4.266 12.005-7.226 20.676-1.054 3.103-2.507 7.972-3.72 11.923-1.294-.311-2.054-.458-2.894-.458-.826 0-2.04.232-3.106.458l-1.894-5.78c-2.733-8.348-5.026-15.19-8.52-25.055-2.04-5.78-4.706-13.067-7.826-21.28 1.52.161 4.12.47 5.933.47 1.747 0 3.413-.16 5.307-.47 2.373 8.965 7.306 23.78 10.88 34.345l1.44 4.247M1573.093 510.41c12.92 0 17.934-12.166 17.934-23.026 0-12.383-4.64-23.013-17.934-23.013-13.066 0-17.92 12.609-17.92 23.013 0 11.33 4.854 23.025 17.92 23.025zm28.347-23.926c0 16.936-11.467 27.796-28.347 27.796-15.786 0-28.32-9.34-28.32-25.981 0-19.292 13.214-27.786 28.547-27.786 14.213 0 28.12 7.742 28.12 25.971M1619.52 484.884c1.44.08 3.253.228 5.24.228 7.6 0 10.4-5.553 10.4-10.485 0-3.186-.52-5.927-3.187-7.89-2.04-1.52-4.56-1.897-7.066-1.897-1.44 0-4.254.296-5.387.377zm14.573 5.552c1.147 1.585 2.827 4.097 3.96 5.684 5.987 8.443 8.04 11.09 12.827 17.099-2.12-.226-4.013-.458-6.76-.458-2.947 0-3.867.147-6.147.458-1.133-1.748-2.813-4.556-3.96-6.306-3.866-6.006-8.573-12.688-12.68-18.468h-1.813v10.795c0 2.204.307 12.004.307 13.979-1.52-.147-3.187-.458-5.08-.458-1.774 0-3.574.232-5.267.458.627-14.975.693-16.642.693-31.292 0-9.96 0-11.023-.533-20.823 1.76.161 3.72.39 7.6.39 1.973 0 10.787-.39 12.533-.39 4.947 0 8.654.619 11.92 3.736 2.28 2.192 3.494 5.31 3.494 8.497 0 8.427-6.307 12.758-13.214 14.047l2.12 3.052M1656.347 481.845c0-3.346 0-4.1-.214-10.861-.08-1.599-.24-8.428-.306-9.88 1.893.39 3.346.47 5.24.47 1.893 0 3.413-.16 5.306-.47-.52 11.48-.746 21.037-.746 32.744 0 5.321.133 10.257.226 14.424h1.36c2.214 0 13.134 0 17.627-.672-.227.835-.387 1.29-.387 3.024 0 1.143.08 1.613.387 2.595-3.88-.147-10.413-.458-14.52-.458-4.867 0-8.96.147-14.493.458 0-1.223.52-18.831.52-20.728v-10.646M1700.707 498.244c0 3.495.226 7.07.373 10.567 1.667.08 8.427.376 10.32.376 5.013 0 17.933-3.726 17.933-23.242 0-9.8-4.64-20.809-20.426-20.809-2.587 0-5.254.15-7.827.377-.147 3.039-.373 6.156-.373 9.194zm27.706 10.647c-5.306 3.416-10.253 4.328-16.48 4.328-4.626 0-9.333-.391-13.973-.391-2.347 0-4.787.244-7.133.39l.453-13.898c.067-3.345.067-5.013.067-14.061 0-4.783.08-9.49-.147-14.275-.147-3.265-.227-6.533-.373-9.88 2.053.161 4.16.39 6.226.39 4.094 0 8.587-.39 13.134-.39 6.453 0 14.506.31 20.813 5.256 5.853 4.544 8.747 11.385 8.747 19.29 0 10.698-4.187 18.685-11.334 23.24M1809.773 471.736h-.76c-.906-1.813-3.573-7.135-14.493-7.135-12.693 0-19.453 8.359-19.453 22.715 0 2.66 0 9.719 4.626 15.876 2.734 3.575 6.84 6.908 13.747 6.908 9.347 0 14.12-4.639 17.533-8.656l.854.525-.854 7.527c-5.76 3.184-12.293 4.784-19.2 4.784-14.813 0-27.133-9.193-27.133-26.279 0-15.269 9.36-27.488 29.627-27.488 6.24 0 11.706 1.062 17.786 3.791l-2.28 7.432M1843.693 510.41c12.92 0 17.92-12.166 17.92-23.026 0-12.383-4.626-23.013-17.92-23.013-13.053 0-17.933 12.609-17.933 23.013 0 11.33 4.88 23.025 17.933 23.025zm28.347-23.926c0 16.936-11.48 27.796-28.347 27.796-15.786 0-28.333-9.34-28.333-25.981 0-19.292 13.213-27.786 28.573-27.786 14.2 0 28.107 7.742 28.107 25.971M1889.88 465.904c5.04 10.241 7.16 14.275 14.373 27.179l4.107 7.298 2.8-4.932c7.147-12.541 10.493-18.845 18.227-34.345.546.161 1.146.23 1.68.23.533 0 1.066-.069 1.586-.23l.627 6.32c.827 8.95 1.813 17.31 3.027 26.424.613 4.556 2.2 15.568 3.04 19.37-1.827-.225-4.4-.457-5.467-.457-1.44 0-2.813.147-5.16.458l-.24-2.81c-.147-1.518-.52-8.28-.68-9.65-.387-3.495-2.2-18.832-2.427-22.032-5.093 8.657-13.6 24.156-18.08 34.492-.533-.082-1-.147-1.52-.147a8.95 8.95 0 0 0-1.453.147c-2.88-5.78-4.773-8.966-10.467-19.975-1.146-2.205-6.533-11.776-7.6-13.75-1.373 10.631-2.653 22.327-3.2 33.725-1.36-.311-2.573-.458-3.48-.458-1.226 0-2.2.232-3.2.458l.467-2.354c1.813-9.421 6.36-40.942 7.28-49.761.6.161 1.147.23 1.76.23.52 0 1.133-.15 1.653-.23l2.347 4.8M1957.533 465.904c5.027 10.241 7.16 14.275 14.36 27.179l4.12 7.298 2.8-4.932c7.147-12.541 10.494-18.845 18.227-34.345.533.161 1.147.23 1.693.23.52 0 1.054-.069 1.574-.23l.613 6.32c.827 8.95 1.827 17.31 3.04 26.424.613 4.556 2.2 15.568 3.027 19.37-1.814-.225-4.387-.457-5.467-.457-1.44 0-2.787.147-5.16.458l-.227-2.81c-.146-1.518-.52-8.28-.68-9.65-.386-3.495-2.2-18.832-2.44-22.032-5.08 8.657-13.586 24.156-18.066 34.492-.534-.082-1-.147-1.52-.147a8.95 8.95 0 0 0-1.454.147c-2.88-5.78-4.786-8.966-10.466-19.975-1.147-2.205-6.534-11.776-7.614-13.75-1.36 10.631-2.64 22.327-3.186 33.725-1.374-.311-2.574-.458-3.494-.458-1.213 0-2.2.232-3.186.458l.466-2.354c1.814-9.421 6.36-40.942 7.28-49.761.6.161 1.147.23 1.747.23.52 0 1.147-.15 1.667-.23l2.346 4.8M2014.733 461.104c1.454.161 4.267.47 5.4.47 1.667 0 3.574-.24 5.4-.47-.84 5.633-.84 18.767-.84 26.443 0 11.316.147 19.516.76 25.672-1.746-.082-3.586-.458-5.32-.458-1.68 0-3.8.376-5.466.458.826-9.034.826-21.575.826-34.572 0-4.771 0-10.176-.76-17.543M2036.32 501.821c3.493 7.595 7.293 8.736 11.76 8.736 6.013 0 9.947-4.018 9.947-9.49 0-6.008-4.774-8.131-6.214-8.736-2.133-.914-5.693-2.286-7.826-3.186-7.374-3.266-9.56-7.152-9.56-13.441 0-6.697 3.933-15.19 17.693-15.19 5.547 0 8.893 1.437 12.6 3.103-1.52 3.723-1.667 4.328-2.347 7.207h-1.066c-1.134-4.316-5.174-6.6-9.96-6.6-5.987 0-8.947 3.721-8.947 8.2 0 5.55 3.867 7.07 10.547 9.648 5.866 2.273 8.133 3.107 10.333 5.54 3.187 3.427 3.72 7.904 3.72 10.027 0 7.756-5.387 16.641-19.28 16.641-6.547 0-11.48-2.513-14.2-3.87 1.267-3.953 1.347-4.949 1.747-8.589h1.053M2074.64 501.821c3.507 7.595 7.307 8.736 11.787 8.736 5.986 0 9.96-4.018 9.96-9.49 0-6.008-4.787-8.131-6.24-8.736-2.134-.914-5.707-2.286-7.827-3.186-7.36-3.266-9.573-7.152-9.573-13.441 0-6.697 3.96-15.19 17.706-15.19 5.534 0 8.88 1.437 12.614 3.103-1.52 3.723-1.667 4.328-2.36 7.207h-1.054c-1.146-4.316-5.186-6.6-9.96-6.6-6 0-8.96 3.721-8.96 8.2 0 5.55 3.867 7.07 10.56 9.648 5.84 2.273 8.12 3.107 10.334 5.54 3.186 3.427 3.72 7.904 3.72 10.027 0 7.756-5.4 16.641-19.307 16.641-6.533 0-11.467-2.513-14.2-3.87 1.307-3.953 1.36-4.949 1.747-8.589h1.053M2113.187 461.104c1.44.161 4.24.47 5.386.47 1.667 0 3.574-.24 5.387-.47-.827 5.633-.827 18.767-.827 26.443 0 11.316.16 19.516.747 25.672-1.733-.082-3.56-.458-5.307-.458-1.666 0-3.8.376-5.466.458.826-9.034.826-21.575.826-34.572 0-4.771 0-10.176-.746-17.543M2160.173 510.408c12.917 0 17.925-12.165 17.925-23.026 0-12.382-4.632-23.013-17.925-23.013-13.063 0-17.924 12.61-17.924 23.013 0 11.33 4.86 23.026 17.924 23.026zm28.33-23.925c0 16.936-11.453 27.796-28.33 27.796-15.789 0-28.343-9.34-28.343-25.982 0-19.292 13.239-27.785 28.572-27.785 14.205 0 28.101 7.742 28.101 25.97M2196.98 482.448c0-7.136-.096-14.275-.165-21.344.619.08 1.21.16 1.83.16.604 0 1.127-.08 1.746-.16 7.207 7.983 13.96 15.041 23.161 24.007l8.954 8.804c1.458 1.372 2.146 1.91 3.81 3.265v-16.852c0-6.452-.372-12.988-.908-19.224.908.23 1.884.47 3.26.47 1.375 0 2.269-.24 3.19-.47-.687 9.207-.839 14.6-.839 25.675 0 4.407.083 15.35.083 19.287 0 1.682.069 5.62.069 7.53-.523-.067-1.06-.15-1.527-.15-.523 0-1.059.083-1.582.15-9.64-10.485-28.332-29.09-36.392-36.457 0 10.324.083 15.861.248 23.926.055 4.396.137 5.16.674 12.153-.84-.08-2.38-.458-3.425-.458-1.142 0-2.104.233-3.026.458l.591-10.565c.152-2.041.248-7.742.248-9.867v-10.338M1500.947 601.559c12.92 0 17.92-12.151 17.92-23.011 0-12.38-4.627-23.013-17.92-23.013-13.067 0-17.92 12.594-17.92 23.013 0 11.317 4.853 23.01 17.92 23.01zm28.333-23.926c0 16.938-11.48 27.798-28.333 27.798-15.8 0-28.347-9.342-28.347-25.983 0-19.29 13.213-27.799 28.573-27.799 14.2 0 28.107 7.758 28.107 25.984M1537.507 573.6c0-7.124-.067-14.273-.147-21.33.6.065 1.213.146 1.827.146.6 0 1.133-.081 1.733-.147 7.227 7.97 13.987 15.027 23.173 23.992l8.96 8.818c1.44 1.372 2.134 1.897 3.814 3.266v-16.868c0-6.452-.4-12.985-.92-19.208.92.214 1.893.442 3.266.442 1.36 0 2.294-.228 3.187-.442-.68 9.18-.84 14.57-.84 25.66 0 4.408.08 15.35.08 19.303 0 1.664.08 5.619.08 7.512-.533-.065-1.067-.145-1.507-.145-.56 0-1.08.08-1.613.145-9.64-10.47-28.32-29.085-36.373-36.455 0 10.338.066 15.878.226 23.928.067 4.395.147 5.162.667 12.154-.827-.083-2.347-.446-3.413-.446-1.134 0-2.12.215-3.04.446l.626-10.554c.147-2.057.214-7.756.214-9.88V573.6M1621.6 577.324c1.373.161 2.653.31 4.027.31 8.493 0 10.56-7.3 10.56-11.32 0-6.009-2.96-10.337-9.267-10.337-1.907 0-3.573.15-5.32.31zm0 15.121c0 6.831.307 9.424.533 11.926a30.175 30.175 0 0 0-5.32-.446c-1.973 0-3.56.148-5.24.446.374-6.079.534-9.035.534-10.943l.146-18.617c0-3.334 0-9.867-.146-12.975l-.387-9.567c1.747.147 3.72.375 7.587.375 1.68 0 8.826-.375 10.333-.375 3.653 0 7.6.292 11.187 2.876 2.866 2.124 5.146 5.16 5.146 10.714 0 7.217-4.48 15.498-19.133 15.498-2.267 0-3.493-.162-5.24-.309v11.397M1661.613 576.033c1.44.08 3.267.228 5.24.228 7.6 0 10.414-5.537 10.414-10.482 0-3.187-.547-5.918-3.187-7.892-2.067-1.519-4.56-1.91-7.08-1.91-1.44 0-4.24.31-5.387.391zm14.587 5.552c1.133 1.6 2.8 4.099 3.947 5.698 6 8.429 8.053 11.09 12.826 17.088-2.12-.231-4.013-.446-6.746-.446-2.974 0-3.867.148-6.16.446-1.134-1.75-2.8-4.558-3.947-6.307-3.88-5.995-8.587-12.69-12.693-18.453h-1.814v10.778c0 2.206.307 12.004.307 13.982-1.52-.15-3.2-.446-5.093-.446-1.747 0-3.574.215-5.24.446.6-14.963.68-16.643.68-31.295 0-9.948 0-11.01-.534-20.807 1.747.147 3.72.375 7.614.375 1.96 0 10.773-.375 12.52-.375 4.933 0 8.653.604 11.92 3.708 2.293 2.204 3.506 5.324 3.506 8.511 0 8.44-6.306 12.768-13.213 14.06l2.12 3.037M1721.52 601.559c12.92 0 17.933-12.151 17.933-23.011 0-12.38-4.64-23.013-17.933-23.013-13.067 0-17.907 12.594-17.907 23.013 0 11.317 4.84 23.01 17.907 23.01zm28.347-23.926c0 16.938-11.467 27.798-28.347 27.798-15.787 0-28.333-9.342-28.333-25.983 0-19.29 13.226-27.799 28.56-27.799 14.213 0 28.12 7.758 28.12 25.984M1775.067 593.965c0 5.767.306 8.28.533 10.406-2.2-.231-4.64-.446-5.547-.446-1.293 0-2.44.148-5.16.446.294-5.768.76-11.63.76-17.395l-.08-21.197c0-2.798-.08-5.474-.16-8.43h-3.786c-.694 0-7.974.162-11.867.538.253-.928.4-1.91.4-2.823 0-.9-.147-1.883-.4-2.795 6.013.375 14.44.442 20.293.442 6.307 0 12.987-.067 20.28-.442-.226 1.276-.373 2.271-.373 2.876 0 .832.147 1.52.373 2.742-4.466-.456-9.88-.538-15.12-.538-.08 2.728-.146 5.632-.146 8.51v28.106M1805.48 574.81c3.88 0 12.4-.069 16.413-.509a9.388 9.388 0 0 0-.373 2.727c0 1.061.147 2.043.373 2.583-1.973-.163-3.946-.311-5.84-.391-3.506-.067-7.08-.15-10.573-.15v20.594c1.973 0 11.707-.228 18.16-.537-.307.686-.373 1.452-.373 2.513 0 1.13.066 1.895.373 2.73-4.56-.297-9.107-.445-13.973-.445-4.56 0-9.347.148-14.214.446.16-3.187.307-6.307.374-9.491.16-4.41.32-13.685.32-17.167 0-3.198-.16-17.852-.694-25.444 3.734.214 9.654.442 13.747.442 3.52 0 8.52-.295 13.987-.442-.227.912-.374 1.504-.374 2.42 0 1.142.147 2.203.374 2.822l-7.134-.391c-2.813-.161-3.586-.161-10.573-.161v17.852M1872.947 562.899h-.747c-.92-1.828-3.573-7.148-14.52-7.148-12.693 0-19.453 8.36-19.453 22.716 0 2.661 0 9.718 4.64 15.874 2.746 3.576 6.84 6.91 13.746 6.91 9.347 0 14.134-4.639 17.56-8.656l.827.536-.827 7.514c-5.786 3.2-12.32 4.786-19.24 4.786-14.8 0-27.093-9.18-27.093-26.278 0-15.27 9.32-27.504 29.613-27.504 6.227 0 11.694 1.062 17.774 3.806l-2.28 7.444M1903.413 593.965c0 5.767.294 8.28.52 10.406-2.2-.231-4.64-.446-5.546-.446-1.294 0-2.427.148-5.174.446.32-5.768.76-11.63.76-17.395l-.066-21.197c0-2.798-.08-5.474-.147-8.43h-3.813c-.68 0-7.96.162-11.84.538.213-.928.386-1.91.386-2.823 0-.9-.173-1.883-.386-2.795 6 .375 14.426.442 20.28.442 6.306 0 12.986-.067 20.293-.442-.24 1.276-.387 2.271-.387 2.876 0 .832.147 1.52.387 2.742-4.493-.456-9.88-.538-15.12-.538-.08 2.728-.147 5.632-.147 8.51v28.106M1933.827 574.81c3.866 0 12.373-.069 16.413-.509-.24.818-.387 1.584-.387 2.727 0 1.061.147 2.043.387 2.583-1.973-.163-3.96-.311-5.867-.391-3.493-.067-7.053-.15-10.546-.15v20.594c1.973 0 11.693-.228 18.146-.537-.293.686-.373 1.452-.373 2.513 0 1.13.08 1.895.373 2.73-4.56-.297-9.106-.445-13.96-.445-4.56 0-9.36.148-14.213.446.147-3.187.293-6.307.373-9.491.147-4.41.307-13.685.307-17.167 0-3.198-.16-17.852-.68-25.444 3.707.214 9.653.442 13.733.442 3.494 0 8.52-.295 14-.442-.226.912-.386 1.504-.386 2.42 0 1.142.16 2.203.386 2.822l-7.16-.391c-2.8-.161-3.573-.161-10.546-.161v17.852M1968.547 589.408c0 3.495.226 7.07.373 10.552 1.667.081 8.427.388 10.333.388 5.027 0 17.92-3.736 17.92-23.252 0-9.8-4.626-20.81-20.426-20.81-2.574 0-5.24.149-7.827.38-.147 3.035-.373 6.154-.373 9.193zm27.72 10.633c-5.307 3.414-10.24 4.33-16.48 4.33-4.64 0-9.347-.376-13.987-.376-2.347 0-4.773.226-7.133.376l.453-13.902c.08-3.346.08-5.013.08-14.045 0-4.801.067-9.505-.16-14.29-.147-3.267-.213-6.531-.373-9.865 2.053.147 4.186.375 6.24.375 4.093 0 8.573-.375 13.133-.375 6.467 0 14.507.292 20.827 5.242 5.826 4.556 8.733 11.384 8.733 19.288 0 10.714-4.2 18.686-11.333 23.242M2050.44 564.488l-7.76 18.697c2.667.066 5.24.296 7.907.296 2.346 0 4.64-.149 6.986-.296zm12.52 31.455l-3.2-8.054c-3.253-.161-6.453-.309-9.707-.309-3.04 0-6.08.148-9.12.31-2.413 5.846-4.853 12.151-6.08 16.48-.973-.149-2.426-.445-3.64-.445-1.293 0-2.346.296-3.426.446l8.813-19.6c7.68-17.166 12.08-27.032 13.907-33.27.826.228 1.6.378 2.506.378.84 0 1.587-.15 2.427-.378 3.653 10.406 8.213 21.039 10.933 27.423 2.894 6.612 7.907 18.079 11.32 25.447-1.146-.083-3.786-.446-5.92-.446-2.133 0-4.253.363-5.626.446l-3.187-8.428M2092.32 576.033c1.44.08 3.267.228 5.24.228 7.6 0 10.413-5.537 10.413-10.482 0-3.187-.533-5.918-3.186-7.892-2.067-1.519-4.574-1.91-7.08-1.91-1.427 0-4.24.31-5.387.391zm14.587 5.552c1.133 1.6 2.813 4.099 3.946 5.698 6 8.429 8.054 11.09 12.84 17.088-2.12-.231-4.026-.446-6.76-.446-2.96 0-3.866.148-6.16.446-1.133-1.75-2.8-4.558-3.946-6.307-3.867-5.995-8.587-12.69-12.68-18.453h-1.827v10.778c0 2.206.293 12.004.293 13.982-1.506-.15-3.186-.446-5.08-.446-1.746 0-3.573.215-5.24.446.6-14.963.68-16.643.68-31.295 0-9.948 0-11.01-.533-20.807 1.76.147 3.72.375 7.6.375 1.973 0 10.787-.375 12.52-.375 4.947 0 8.68.604 11.947 3.708 2.266 2.204 3.493 5.324 3.493 8.511 0 8.44-6.307 12.768-13.213 14.06l2.12 3.037M2138.307 574.81c3.88 0 12.4-.069 16.413-.509-.213.818-.373 1.584-.373 2.727 0 1.061.16 2.043.373 2.583-1.973-.163-3.96-.311-5.853-.391-3.494-.067-7.054-.15-10.56-.15v20.594c1.986 0 11.706-.228 18.16-.537-.294.686-.374 1.452-.374 2.513 0 1.13.08 1.895.374 2.73-4.56-.297-9.12-.445-13.96-.445-4.574 0-9.36.148-14.214.446.147-3.187.294-6.307.374-9.491.146-4.41.306-13.685.306-17.167 0-3.198-.16-17.852-.68-25.444 3.72.214 9.64.442 13.734.442 3.506 0 8.506-.295 13.986-.442-.226.912-.373 1.504-.373 2.42 0 1.142.147 2.203.373 2.822l-7.146-.391c-2.8-.161-3.574-.161-10.56-.161v17.852M2182.238 564.489l-7.754 18.698c2.67.065 5.246.295 7.903.295 2.345 0 4.622-.149 6.981-.295zm12.525 31.455l-3.199-8.053c-3.267-.162-6.452-.31-9.72-.31-3.022 0-6.072.148-9.108.31-2.44 5.846-4.853 12.15-6.073 16.481-.976-.15-2.426-.446-3.66-.446-1.274 0-2.345.296-3.416.446l8.811-19.6c7.686-17.165 12.091-27.032 13.908-33.269.827.228 1.6.377 2.494.377.854 0 1.6-.15 2.44-.377 3.66 10.405 8.214 21.038 10.939 27.422 2.887 6.612 7.903 18.079 11.319 25.447-1.14-.084-3.782-.446-5.924-.446-2.128 0-4.256.362-5.625.446l-3.186-8.428M2215.152 592.981c3.5 7.596 7.302 8.725 11.78 8.725 5.98 0 9.948-4.02 9.948-9.49 0-5.994-4.795-8.131-6.228-8.736-2.122-.916-5.69-2.286-7.826-3.2-7.371-3.252-9.59-7.124-9.59-13.443 0-6.68 3.969-15.189 17.706-15.189 5.566 0 8.9 1.453 12.62 3.12-1.53 3.723-1.667 4.326-2.356 7.217h-1.06c-1.144-4.327-5.167-6.612-9.949-6.612-6.02 0-8.97 3.721-8.97 8.199 0 5.551 3.886 7.071 10.569 9.652 5.828 2.283 8.115 3.118 10.32 5.55 3.182 3.415 3.72 7.892 3.72 10.03 0 7.743-5.388 16.626-19.29 16.626-6.544 0-11.463-2.5-14.205-3.872 1.295-3.951 1.378-4.947 1.75-8.577h1.06M1333.347 359.71c-14.208 21.575-58.367 9.694-58.367 9.694s17.973 2.35 32.787-3.267c5.697-2.164 8.749-5.982 13.845-10.78 5.915-5.606 8.267-14.908 7.565-23.442-.872-10.418-4.838-20.084-4.838-20.084s20.688-15.404 1.105-37.422c-15.781-17.77-40.313-8.429-40.313-8.429s15.808-12.11 29.65-11.13c13.863.982 25.739 15.029 25.739 15.029s-2.907-2.326-5.88-3.603c-3.605-1.532-7.384-2.057-7.384-2.057s17.01 11.024 16.93 22.434c-.093 14.143-14.98 24.802-14.98 24.802s24.167 17.85 4.14 48.256zm-52.13-89.63s-7.081-27.22-33.766-26.897c-35.028.416-41.346 30.205-41.346 30.205s-3.724-2.125-9.021-3.253c-4.205-.902-9.49-.968-14.195-.404-9.154 1.116-16.196 12.634-16.196 12.634s-.526-1.8.727-5.214c1.292-3.51 4.339-8.644 4.339-8.644s-14.878 13.55-16.128 29.077c-1.292 15.981 11.062 33.967 11.062 33.967s-4.128 19.826 5.014 28.926c9.582 9.531 32.45 8.348 32.45 8.348s-7.206 5.336-17.37 5.444c-8.722.094-20.151-4.584-25.268-9.261-4.651-4.261-7.596-13.348-6.831-20.405.956-8.751 6.344-15.203 6.344-15.203s-30.393-19.33-13.735-50.664c19.891-37.421 57.044-13.737 57.044-13.737s3.579-11.183 10.232-19.222c6.612-7.97 16.306-12.782 16.306-12.782s-2.959-.632-6.519.684c-3.565 1.318-7.719 4.584-7.719 4.584s2.716-5.712 10.73-9.14c10.901-4.664 29.26-6.291 42.366 5.565 13.847 12.541 11.48 35.392 11.48 35.392zm-24.813 66.524s-1.41 6.708-5.536 11.103c-3.443 3.684-7.65 3.469-7.65 3.469s-3.897.27-5.995-1.775c-2.863-2.782-4.167-8.077-4.167-8.077s-.147-2.003.012-3.752c.204-2.03.727-3.857.727-3.857s-1.211 1.894-1.842 3.884c-.59 1.856-.617 3.845-.617 3.845s-.7-1.372-.877-4.1c-.239-3.83.016-9.383.016-9.383s1.262-6.182 4.502-9.462c3.32-3.334 8.618-3.766 8.618-3.766s4.609-.428 8.106 2.422c4.031 3.305 4.703 8.172 4.703 8.172s.365 2.5.365 5.148c0 2.972-.365 6.129-.365 6.129zm125.903-64.359c-28.587-29.222-73.92-59.333-138.647-59.333-45.688 0-82.021 16.56-108.41 34.384-85.677 57.881-84.845 162.73-84.845 162.73s.928 16.573 2.314 29.543c.966 9.02 2.566 15.89 2.566 15.89s22.26-5.002 53.822-8.886c40.449-4.961 92.428-9.061 92.428-9.061s11.844-1.624 16.964-11.223c5.752-10.834 4.88-29.76 4.88-29.76l-.607-16.829s-.36-9.261-7.125-19.303c-7.834-11.6-18.402-25.929-18.402-25.929s-1.153-.767-2.658-3.764c-3.014-5.941-7.716-16.696-11.656-24.923-3.159-6.6-5.97-11.505-5.97-11.505s-1.049-3.684-.94-7.017c.094-3.091 1.91-5.86 1.91-5.86s.281 5.941 1.734 9.61c1.476 3.751 4.692 6.372 4.692 6.372l.792-8.965 3.508 13.28s1.56 4.637 5.458 10.121c3.36 4.719 9.221 10.768 13.12 15.742a591.732 591.732 0 0 1 9.302 12.177s8.588 7.608 16.411 12.099c4.384 2.513 9.155 2.93 9.155 2.93s4.192.04 10.848-2.997c3.146-1.425 5.86-3.71 9.568-6.332 4.653-3.267 10.325-7.179 14.169-11.883 2.26-2.756 3.295-5 5.833-8.401 1.79-2.379 3.967-4.207 5.863-6.843 3.413-4.69 6.41-10.268 7.957-14.14 4.382-11.062 3.467-17.904 3.467-17.904l3.133 7.406s2.716-5.215 6.547-7.716c3.776-2.459 8.659-2.218 8.659-2.218s-5.568 4.53-8.659 9.436c-2.503 3.966-2.65 8.523-2.65 8.523s-5.671 15.66-11.423 25.755c-7.476 13.118-15.484 21.468-15.484 21.468s-6.159 7.982-10.378 15.941c-4.169 7.85-6.388 15.673-6.388 15.673l-.792 15.996 1.56 19.519s1.075 10.147 6.883 15.187c7.11 6.157 19.45 7.261 19.45 7.261s33.55.833 69.187 4.932c35.547 4.099 72.974 11.641 72.974 11.641s2.36-10.056 3.36-21.413c.96-10.887.733-23.644.733-23.644s2.893-79.375-54.213-137.767" fill="#fff"/><path d="M1320.496 552.39c-23.953 14.503-49.816 12.351-49.816 12.351s-11.05-3.493-16.601.486c-6.386 4.556-7.394 16.693-7.394 16.693s-2.861 2.85-7.809 2.77c-6.303-.107-15.016-3.171-15.016-3.171s4.383.349 7.877-.446c3.32-.765 5.779-2.674 5.779-2.674s-5.052-.054-9.61-.646c-3.749-.47-7.163-1.492-7.163-1.492l4.865-8.01s4.17-6.707 3.63-11.131c-.537-4.543-5.766-6.813-5.766-6.813s-25.823-14.558-38.11-37.154c-4.647-8.564-10.417-21.99-11.92-30.744-2.423-14.06 1.249-21.87 1.249-21.87s3.614 7.838 13.374 15.836c3.912 3.2 9.571 6.706 15.808 9.329 6.654 2.796 13.979 4.704 20.607 7.716 7.97 3.641 13.968 8.495 19.437 12.46 10.956 7.944 9.8 19.452 9.8 19.452s10.242-10.433 25.162-10.472c10.054-.028 23.096 4.193 34.494 6.935 8.32 2.004 15.323 2.864 21.88 2.526 10.667-.564 18.734-4.261 18.734-4.261s.56 11.681-33.491 32.33zm-9.677 39.41c-10.15 8.98-30.568 8.456-30.568 8.456s16.95-5.795 27.38-13.993c10.646-8.374 14.748-19.167 14.748-19.167s1.008 13.575-11.56 24.704zm-114.659-1.101s7 .672 10.697 0c3.32-.604 3.334-2.54 3.334-2.54s-7.18.993-18.052-2.422c-3.266-1.034-7.367-2.337-11.146-4.125-5.75-2.743-11.289-6.104-16.224-7.393-8.104-2.111-18.95-2.446-18.95-2.446s5.858-2.998 17.177-2.837c6.828.093 16.01 1.815 26.064 3.964 7.675 1.641 16.83 4.49 25.821 8.228 6.414 2.661 12.57 6.144 18.927 8.227 9.128 2.982 17.893 3.414 25.377 3.992 22.248 1.733 40.18-10.068 40.18-10.068s-16.44 17.729-45.474 19.612c-29.908 1.936-57.731-12.192-57.731-12.192zm-34.925-35.232c11.573.244 23.026 11.037 23.026 11.037s-12.945-4.155-24.586-4.396c-11.383-.241-21.466 3.428-21.466 3.428s11.575-10.312 23.026-10.07zm86.322-103.518c-92.853.202-189.544 18.35-189.544 18.35s19.682 79.469 91.998 119.512c24.961 13.833 55.18 26.738 94.433 24.894 152.09-7.15 185.25-145.188 185.25-145.188s-89.147-17.768-182.137-17.568" fill="#fff"/></svg>