<svg xmlns="http://www.w3.org/2000/svg" viewBox="0 0 207.64133 284.90933" height="284.909" width="207.641"><defs><clipPath id="a"><path d="M0 213.682h155.731V0H0z"/></clipPath></defs><g clip-path="url(#a)" transform="matrix(1.33333 0 0 -1.33333 0 284.91)" fill="#000000"><path d="M155.638 15.496l-11.806 73.355-2.448 15.213c-.47 2.911-1.146 4.825-3.486 6.845l-14.422 12.456a284.806 284.806 0 0 0-4.05-12.317c3.07-2.653 6.144-5.305 9.215-7.958l.946-.818.287-1.784 2.517-15.633 10.086-62.676c-8.99 2.497-17.98 4.994-26.967 7.492-3.018.838-9.052 3.697-12.273 2.388l-13.394-5.437L54.23 12.164l-8.048 1.725-23.347 5.003-10.178 2.182c4.68 30.58 9.365 61.158 14.046 91.736 5.798-1.7 11.595-3.4 17.393-5.102l12.062-3.538c2.05-.602 3.683-.47 5.335.007a312.385 312.385 0 0 0-4.35 12.211l-10.78 3.162-22.918 6.723c-2.862.84-6.891-.99-7.38-4.19C10.75 87.384 5.439 52.685.124 17.987a6.95 6.95 0 0 1-.074-1.366c-.324-2.616.907-5.295 4.266-6.015l36.158-7.749L53.129.145c4.095-.877 9.219 2.448 12.843 3.92l38.967 15.82.388.157 4.753-1.32 22.399-6.224c5.26-1.46 10.518-2.922 15.778-4.383 4.778-1.327 8.08 3.025 7.38 7.381"/><path d="M89.193 160.943c-8.092 0-14.639 6.563-14.639 14.649 0 8.098 6.547 14.65 14.64 14.65 8.102 0 14.66-6.552 14.66-14.65 0-8.086-6.558-14.65-14.66-14.65m.01 52.74c-24.836 0-33.849-23.068-31.995-50.896 2.833-42.308 31.99-95.603 31.99-95.603s29.168 53.295 31.99 95.603c1.864 27.823-6.645 50.896-31.985 50.896"/></g></svg>
