<svg xmlns="http://www.w3.org/2000/svg" viewBox="0 0 219.79333 167.04134" height="167.041" width="219.793"><defs><clipPath id="a"><path d="M0 125.281h164.845V0H0z"/></clipPath></defs><g clip-path="url(#a)" transform="matrix(1.33333 0 0 -1.33333 0 167.041)"><path d="M42.86 79.125c-5.46 0-9.892-4.43-9.892-9.891 0-5.454 4.431-9.89 9.891-9.89 5.461 0 9.891 4.436 9.891 9.89 0 5.461-4.43 9.891-9.89 9.891m39.562 0c-5.46 0-9.89-4.43-9.89-9.891 0-5.454 4.43-9.89 9.89-9.89 5.46 0 9.89 4.436 9.89 9.89 0 5.461-4.43 9.891-9.89 9.891m39.563 0c-5.46 0-9.89-4.43-9.89-9.891 0-5.454 4.43-9.89 9.89-9.89 5.46 0 9.891 4.436 9.891 9.89 0 5.461-4.43 9.891-9.89 9.891m-79.127-6.594a3.303 3.303 0 0 0 3.297-3.297 3.304 3.304 0 0 0-3.297-3.297 3.305 3.305 0 0 0-3.297 3.297 3.304 3.304 0 0 0 3.297 3.297m39.563 0a3.302 3.302 0 0 0 3.296-3.297 3.303 3.303 0 0 0-3.296-3.297 3.304 3.304 0 0 0-3.297 3.297 3.303 3.303 0 0 0 3.297 3.297m39.563 0a3.304 3.304 0 0 0 3.297-3.297 3.305 3.305 0 0 0-3.297-3.297 3.304 3.304 0 0 0-3.297 3.297 3.303 3.303 0 0 0 3.297 3.297m-39.563 52.75C36.903 125.281 0 100.555 0 70.059c0-16.311 10.612-30.928 27.4-41.038C26.89 18.448 21.957 0 21.957 0s23.464 7.965 41.146 16.42c6.207-.998 12.653-1.578 19.318-1.578 45.52 0 82.422 24.72 82.422 55.217 0 30.496-36.903 55.222-82.422 55.222m0-6.593c41.81 0 75.83-21.816 75.83-48.629s-34.02-48.623-75.83-48.623c-5.957 0-12.106.502-18.275 1.494l-2.028.328-1.86-.888c-9.493-4.54-20.826-8.983-29.074-12.055 1.27 5.969 2.543 13.027 2.801 18.391l.186 3.935-3.374 2.028C15.416 43.935 6.593 56.832 6.593 70.059c0 26.813 34.02 48.629 75.83 48.629" fill="#fff"/></g></svg>