<svg xmlns="http://www.w3.org/2000/svg" viewBox="0 0 29.886133 29.885468" height="29.885" width="29.886"><defs><clipPath id="a"><path d="M0 22.414h22.415V0H0z"/></clipPath></defs><g clip-path="url(#a)" transform="matrix(1.33333 0 0 -1.33333 0 29.885)"><path d="M8.498 19.414a5.46 5.46 0 0 1-3.888-1.61A5.458 5.458 0 0 1 3 13.914a5.46 5.46 0 0 1 1.61-3.89 5.464 5.464 0 0 1 3.89-1.61 5.46 5.46 0 0 1 3.889 1.61A5.46 5.46 0 0 1 14 13.915c0 1.47-.571 2.85-1.61 3.89a5.47 5.47 0 0 1-3.89 1.61zm4.854-12.472A8.48 8.48 0 0 0 8.5 5.414a8.444 8.444 0 0 0-6.011 2.49A8.439 8.439 0 0 0 0 13.915a8.437 8.437 0 0 0 2.489 6.01 8.44 8.44 0 0 0 6.009 2.49 8.448 8.448 0 0 0 6.012-2.49 8.443 8.443 0 0 0 2.49-6.01 8.49 8.49 0 0 0-1.527-4.852l6.942-6.942-2.123-2.12z" fill="#fff" fill-rule="evenodd"/></g></svg>