<svg xmlns="http://www.w3.org/2000/svg" viewBox="0 0 218.668 220.444" height="220.444" width="218.668"><defs><clipPath id="a"><path d="M0 165.333h164.001V0H0z"/></clipPath></defs><g clip-path="url(#a)" transform="matrix(1.33333 0 0 -1.33333 0 220.444)"><path d="M122.751 103.775c-10.465 0-18.975 8.51-18.975 18.973 0 10.47 8.51 18.98 18.975 18.98 10.461 0 18.971-8.51 18.971-18.98 0-10.463-8.51-18.973-18.971-18.973m33.404 10.558l7.846 2.67v11.502l-7.835 5.828h-.046c-.817 0-2.055 4.654-3.666 7.396l.019-.722 4.839 8.542-8.131 7.947-8.896-4.929 2.774-.075c-2.739 1.62-6.058 2.818-6.058 3.627v.034l-8.495 9.18h-11.503l-4.002-9.16v-.054c0-.809-5.569-2.054-8.3-3.674l.246.021-8.766 4.845-8.064-8.132 4.876-8.895.04 1.445c-1.619-2.742-2.839-7.396-3.652-7.396h-.038l-11.342-5.828v-11.503l11.334-2.669h.046c.813 0 2.055-6.242 3.675-8.975l-.016-.076-4.851-8.929 8.128-8.153 8.907 4.826-.523.031c2.731-1.613 8.3-2.864 8.3-3.677v-.034l4.002-10.013h11.503l8.495 10.001v.046c0 .813 3.319 2.061 6.065 3.674l-1.388-.019 8.201-4.846 7.788 8.136-5.015 8.898-.112.135c1.619 2.733 2.763 8.975 3.58 8.975zM62.027 30.906c-12.211-4.923-26.174 1-31.101 13.22-4.946 12.234.982 26.191 13.196 31.126 12.23 4.94 26.182-.997 31.12-13.203 4.946-12.235-.985-26.19-13.215-31.143m33.992 15.761c.611 3.95.779 7.67.107 12.078l.034.025 9.999 7.958-5.419 13.424-12.703-1.23-.05-.024c-2.574 3.64-5.298 6.195-8.479 8.627l.015.04 1.452 12.687-13.333 5.664-8.113-9.835-.217-.054a45.071 45.071 0 0 1-12.311.105v.04l-7.757 9.988-13.473-5.429 1.23-12.686v-.063c-4-2.438-6.06-5.3-8.493-8.48l.026.017-12.66 1.451-5.66-13.336 9.866-8.112.056-.026c-.6-3.953-.777-7.672-.093-12.093l-.044-.013L0 39.435l5.432-13.428 12.699 1.232.046.027c2.571-3.657 5.298-6.195 8.483-8.645l-.012-.025L25.189 5.91 38.515.246l8.12 9.835.023.053a44.007 44.007 0 0 1 12.104-.105l.011-.026L66.721 0l13.425 5.416-1.218 12.714-.02.05a42.935 42.935 0 0 1 8.621 8.477l.038-.027 12.696-1.449 5.664 13.346-9.854 8.126z" fill="#fff"/></g></svg>