<svg xmlns="http://www.w3.org/2000/svg" viewBox="0 0 57.018269 75.024803" height="75.025" width="57.018"><defs><clipPath id="a"><path d="M0 56.269h42.764V0H0z"/></clipPath></defs><g clip-path="url(#a)" transform="matrix(1.33333 0 0 -1.33333 0 75.025)"><path d="M40.513 2.25H7.683l-4.5 4.502h32.829v46.334l4.5-4.502zM2.25 54.019h20.256V34.919c-.002-.337-.004-.68.244-.938.143-.144.346-.22.589-.22h.236l.129.2c1.265 1.991 1.22 4.993 2.179 4.993.956 0 .914-3.002 2.179-4.994l.129-.199h.235c.244 0 .44.076.587.22.25.257.246.6.246.938v19.099h4.5V9.002H2.25zm33.76 2.25H0V6.752L6.753.002h36.01v49.516z" fill="#ffffff"/></g></svg>
