<svg xmlns="http://www.w3.org/2000/svg" viewBox="0 0 250.78667 250.78532" height="250.785" width="250.787"><defs><clipPath id="a"><path d="M0 188.089h188.09V0H0z"/></clipPath></defs><path d="M138.444 47.777h-26.667v96h26.667zm0 150.667h-26.667v-33.333h26.667z" fill="#808285"/><g clip-path="url(#a)" transform="matrix(1.33333 0 0 -1.33333 0 250.785)"><path d="M94.045 175.998c-45.19 0-81.953-36.765-81.953-81.953s36.763-81.953 81.953-81.953c45.19 0 81.953 36.765 81.953 81.953s-36.763 81.953-81.953 81.953M94.045 0C42.187 0 0 42.189 0 94.045s42.187 94.045 94.045 94.045c51.857 0 94.045-42.19 94.045-94.045C188.09 42.189 145.902 0 94.045 0" fill="#808285"/></g></svg>