<svg xmlns="http://www.w3.org/2000/svg" viewBox="0 0 564.40533 709.25201" height="709.252" width="564.405"><defs><clipPath id="a"><path d="M0 531.939h423.304V0H0z"/></clipPath></defs><g clip-path="url(#a)" transform="matrix(1.33333 0 0 -1.33333 0 709.252)"><path d="M71.58 392.765c13.003 15.46 28.611 28.575 46.092 39.962 36.813 23.98 77.641 38.18 120.056 48.33 32.885 7.87 66.27 12.624 99.903 15.73 9.87.913 19.78 1.388 29.861 2.077-4.592-8.87-9.402-17.193-13.426-25.82 12.08.468 24.197.545 36.285.857 6.724 11.675 15.052 22.147 27.065 29.733 5.305 3.35 7.136 11.55 5.04 17.57-2.206 6.34-8.069 10.913-14.745 10.73-19.643-.54-39.372-.37-58.897-2.254-28.107-2.713-56.207-6.133-84.052-10.79-51.569-8.623-101.219-23.616-147.227-49.093-31.692-17.549-59.396-39.898-80.65-69.56-19.823-27.662-31.059-58.22-35.12-91.135 5.162 11.452 11.504 22.508 19.12 33.135 14.244 19.88 31.398 36.462 50.695 50.528m336.131 55.168c-19.643-.539-39.372-.369-58.897-2.253-28.107-2.713-56.207-6.133-84.052-10.79-51.569-8.623-101.219-23.616-147.227-49.093-31.692-17.549-59.396-39.898-80.65-69.56C13.131 283.088 1.697 245.785.18 205.243c-1.362-36.328 5.151-71.505 15.737-106.046 2.768-9.034 8.695-17.913 8.564-26.795-.135-9.084-6.128-18.017-9.187-27.14-2.743-8.18-5.258-16.46-7.375-24.824C5.586 11.228 10.6 2.801 19.184.551c8.523-2.235 17.031 2.494 19.424 11.194 9.476 34.453 23.247 67.163 40.154 98.558 35.447 65.824 82.132 121.788 144.566 163.834 8.408 5.662 10.45 15.117 5.126 22.976-5.147 7.6-14.685 9.443-22.853 3.576-13.376-9.607-26.869-19.153-39.445-29.754-41.113-34.657-74.84-75.667-102.41-121.763-6.472-10.822-12.472-21.925-18.827-33.143-.452.915-.94 1.604-1.148 2.368-6.404 23.486-10.834 47.264-11.4 71.702-.645 27.815 3.428 54.693 14.934 80.208 15.148 33.587 39.945 58.603 70.367 78.42 36.813 23.98 77.641 38.18 120.056 48.33 32.885 7.87 66.27 12.624 99.903 15.73 9.87.913 19.78 1.388 29.861 2.077-5.094-9.84-10.469-19.005-14.725-28.662-17.306-39.259-23.347-80.919-24.998-123.35-.892-22.937-.035-45.967-5.127-68.582-8.076-35.87-26.199-64.713-58.267-83.965-29.149-17.499-61.323-24.337-94.662-26.125-18.248-.979-36.602-.063-54.906.166-9.288.115-16.21-5.28-17.19-13.838-1.026-8.979 4.361-16.315 13.64-17.729 5.571-.848 11.275-.875 16.926-1.139 37.663-1.756 74.837 1.202 110.974 12.573 32.575 10.25 61.013 27.091 82.68 54.094 24.023 29.941 34.213 64.927 36.76 102.543 1.9 28.051 2.643 56.198 5.267 84.174 2.352 25.08 9.04 49.345 19.894 72.192 7.908 16.646 17.422 32.164 33.658 42.418 5.305 3.35 7.136 11.55 5.04 17.57-2.206 6.34-8.069 10.913-14.745 10.73" fill="#000000" fill-rule="evenodd"/></g></svg>
