<svg width="35" height="34" viewBox="0 0 35 34" xmlns="http://www.w3.org/2000/svg"><title>Group 6</title><path d="M28.456 23.55c0 .523-.319.65-.858.65H7.706c-.54 0-2.011-.127-2.011-.65v-9.083c0-.228.38-.527.863-.272.69.36 9.328 4.795 9.75 5.016.423.222.815.248 1.224.248.407 0 .75-.026 1.174-.248.423-.221 8.747-4.655 9.437-5.015.487-.253.313.044.313.274v9.08zM7.111 9.8h21.035c1.114 0 .54 1.299-.069 1.626-.606.327-9.01 4.863-9.323 5.03-.313.17-.72.255-1.126.255-.408 0-.814-.075-1.127-.243-.313-.17-8.717-4.716-9.325-5.043-.606-.327-1.18-1.626-.065-1.626zM17.653.2C8.39.2.88 7.722.88 17c0 9.279 7.509 16.8 16.772 16.8 9.262 0 16.771-7.521 16.771-16.8 0-9.278-7.509-16.8-16.771-16.8z" fill="#FFF" fill-rule="evenodd"/></svg>