<svg id="Layer_1" xmlns="http://www.w3.org/2000/svg" viewBox="0 0 28 28"><style>.st0{fill:#fff}</style><path class="st0" d="M14 0C6.3 0 0 6.3 0 14s6.3 14 14 14 14-6.3 14-14S21.7 0 14 0zm5.7 11.5v.4c0 3.6-2.8 7.8-7.8 7.8-1.6 0-3-.5-4.2-1.2h.7c1.3 0 2.5-.4 3.4-1.2-1.2 0-2.2-.8-2.6-1.9h.5c.3 0 .5 0 .7-.1-1.3-.3-2.2-1.4-2.2-2.7.4.2.8.3 1.2.3-.7-.5-1.2-1.3-1.2-2.3 0-.5.1-1 .4-1.4 1.4 1.7 3.4 2.8 5.7 2.9 0-.2-.1-.4-.1-.6 0-1.5 1.2-2.8 2.8-2.8.8 0 1.5.3 2 .9.6-.1 1.2-.4 1.8-.7-.2.6-.6 1.2-1.2 1.5.6-.1 1.1-.2 1.6-.4-.5.6-1 1.1-1.5 1.5z"/></svg>